<svg width="1000" height="600" viewBox="0 0 1000 600" fill="none" xmlns="http://www.w3.org/2000/svg">
<rect width="1000" height="600" fill="#FCDDEC" fill-opacity="0.3"/>
<path d="M385.554 293.31H405.652V300H377.244V257.093H385.554V293.31ZM439.336 281.199H421.713V293.31H442.312V300H413.403V257.093H442.223V263.841H421.713V274.656H439.336V281.199ZM463.382 288.006L471.486 257.093H480.622L467.626 300H459.198L446.231 257.093H455.367L463.382 288.006ZM511.83 281.199H494.207V293.31H514.806V300H485.897V257.093H514.718V263.841H494.207V274.656H511.83V281.199ZM530.543 293.31H550.641V300H522.232V257.093H530.543V293.31ZM614.53 300H606.249V267.083L595.404 270.973V263.841L614.088 257.093H614.53V300Z" fill="#FCCBE3"/>
</svg>
