<svg width="1000" height="600" viewBox="0 0 1000 600" fill="none" xmlns="http://www.w3.org/2000/svg">
<rect width="1000" height="600" fill="#FCDDEC" fill-opacity="0.6"/>
<path d="M385.554 293.31H405.652V300H377.244V257.093H385.554V293.31ZM439.336 281.199H421.713V293.31H442.312V300H413.403V257.093H442.223V263.841H421.713V274.656H439.336V281.199ZM463.382 288.006L471.486 257.093H480.622L467.626 300H459.198L446.231 257.093H455.367L463.382 288.006ZM511.83 281.199H494.207V293.31H514.806V300H485.897V257.093H514.718V263.841H494.207V274.656H511.83V281.199ZM530.543 293.31H550.641V300H522.232V257.093H530.543V293.31ZM622.516 300H593.253V294.401L607.133 279.489C608.214 278.311 609.127 277.24 609.874 276.277C610.62 275.315 611.22 274.44 611.671 273.655C612.143 272.849 612.477 272.102 612.673 271.415C612.89 270.727 612.998 270.059 612.998 269.411C612.998 268.448 612.86 267.594 612.585 266.847C612.31 266.101 611.917 265.472 611.406 264.961C610.915 264.431 610.316 264.028 609.609 263.753C608.921 263.478 608.155 263.34 607.31 263.34C605.051 263.34 603.361 263.969 602.241 265.226C601.141 266.484 600.591 268.242 600.591 270.501H592.369C592.369 268.596 592.733 266.798 593.459 265.108C594.186 263.399 595.208 261.906 596.524 260.629C597.86 259.352 599.461 258.35 601.328 257.623C603.214 256.877 605.296 256.503 607.575 256.503C609.756 256.503 611.681 256.808 613.351 257.417C615.041 258.026 616.445 258.881 617.565 259.981C618.705 261.081 619.569 262.407 620.159 263.959C620.748 265.492 621.043 267.191 621.043 269.057C621.043 270.472 620.817 271.827 620.365 273.124C619.933 274.401 619.304 275.668 618.479 276.926C617.673 278.183 616.701 279.47 615.561 280.786C614.422 282.083 613.155 283.448 611.76 284.882L603.685 293.428H622.516V300Z" fill="#FCCBE3"/>
</svg>
