<svg width="1000" height="600" viewBox="0 0 1000 600" fill="none" xmlns="http://www.w3.org/2000/svg">
<rect width="1000" height="600" fill="#FCDDEC" fill-opacity="0.9"/>
<path d="M385.554 293.31H405.652V300H377.244V257.093H385.554V293.31ZM439.336 281.199H421.713V293.31H442.312V300H413.403V257.093H442.223V263.841H421.713V274.656H439.336V281.199ZM463.382 288.006L471.486 257.093H480.622L467.626 300H459.198L446.231 257.093H455.367L463.382 288.006ZM511.83 281.199H494.207V293.31H514.806V300H485.897V257.093H514.718V263.841H494.207V274.656H511.83V281.199ZM530.543 293.31H550.641V300H522.232V257.093H530.543V293.31ZM602.713 274.951H607.163C609.402 274.951 611.062 274.391 612.143 273.271C613.224 272.132 613.764 270.649 613.764 268.822C613.764 267.977 613.636 267.211 613.381 266.523C613.145 265.816 612.781 265.217 612.29 264.725C611.799 264.215 611.17 263.822 610.404 263.547C609.658 263.272 608.783 263.134 607.782 263.134C606.956 263.134 606.18 263.252 605.453 263.488C604.746 263.723 604.118 264.067 603.567 264.519C603.037 264.951 602.615 265.482 602.3 266.11C601.986 266.739 601.829 267.446 601.829 268.232H593.636C593.636 266.484 593.99 264.892 594.697 263.458C595.424 262.024 596.416 260.796 597.674 259.775C598.931 258.733 600.404 257.928 602.094 257.358C603.803 256.788 605.64 256.503 607.605 256.503C609.726 256.503 611.671 256.769 613.44 257.299C615.208 257.81 616.721 258.586 617.978 259.627C619.235 260.649 620.208 261.926 620.895 263.458C621.603 264.971 621.956 266.729 621.956 268.733C621.956 269.657 621.819 270.57 621.544 271.474C621.269 272.358 620.866 273.203 620.335 274.008C619.805 274.814 619.147 275.56 618.361 276.248C617.575 276.916 616.671 277.495 615.65 277.986C616.848 278.419 617.88 278.969 618.744 279.637C619.628 280.305 620.355 281.071 620.925 281.935C621.495 282.78 621.917 283.713 622.192 284.735C622.467 285.757 622.605 286.837 622.605 287.977C622.605 289.98 622.221 291.768 621.455 293.34C620.689 294.912 619.638 296.238 618.302 297.318C616.966 298.379 615.375 299.195 613.528 299.764C611.701 300.314 609.726 300.589 607.605 300.589C605.778 300.589 603.99 300.344 602.241 299.853C600.512 299.342 598.97 298.585 597.615 297.584C596.259 296.562 595.169 295.285 594.344 293.753C593.538 292.22 593.135 290.413 593.135 288.33H601.328C601.328 289.155 601.485 289.922 601.799 290.629C602.114 291.316 602.556 291.916 603.125 292.426C603.715 292.918 604.402 293.31 605.188 293.605C605.974 293.88 606.839 294.018 607.782 294.018C609.864 294.018 611.495 293.468 612.673 292.367C613.852 291.267 614.442 289.774 614.442 287.888C614.442 286.729 614.275 285.737 613.941 284.912C613.607 284.087 613.115 283.409 612.467 282.878C611.838 282.348 611.072 281.955 610.169 281.7C609.284 281.444 608.282 281.317 607.163 281.317H602.713V274.951Z" fill="#FCCBE3"/>
</svg>
