<svg width="97" height="91" viewBox="0 0 97 91" fill="none" xmlns="http://www.w3.org/2000/svg">
<g clip-path="url(#clip0_40_2812)">
<ellipse cx="48.6854" cy="46.2953" rx="31.9605" ry="50.2672" transform="rotate(-136.015 48.6854 46.2953)" fill="url(#paint0_radial_40_2812)" fill-opacity="0.8"/>
<path fill-rule="evenodd" clip-rule="evenodd" d="M31.1406 65.0996L29.7018 63.6614L16.1474 77.2214L13.7899 81.0198L17.5863 78.6605L31.1406 65.0996Z" fill="#C8F3FA"/>
<path fill-rule="evenodd" clip-rule="evenodd" d="M30.4208 64.3801L29.7018 63.6614L16.1474 77.2214L13.7919 81.0178L30.4208 64.3801Z" fill="#87CEAC"/>
<path fill-rule="evenodd" clip-rule="evenodd" d="M32.6849 66.817L27.9836 62.1179L27.7718 62.3309L27.4806 65.8953L28.9078 67.3218L32.4721 67.0289L32.6849 66.817Z" fill="#1D3867"/>
<path fill-rule="evenodd" clip-rule="evenodd" d="M30.3338 64.467L27.9836 62.1179L27.7718 62.3309L27.4806 65.8954L28.1937 66.6081L30.3338 64.467Z" fill="#101E38"/>
<path d="M67.5596 33.2257L76.7274 24.0536L70.726 18.055L61.5582 27.2272L67.5596 33.2257Z" fill="#101E38"/>
<path d="M64.5592 30.2257L73.7265 21.054L70.7263 18.0553L61.559 27.2269L64.5592 30.2257Z" fill="#09101F"/>
<path d="M37.2392 71.8172L70.8772 38.1609L56.6202 23.9116L22.9821 57.5679L37.2392 71.8172Z" fill="#C8F3FA"/>
<path d="M30.1111 64.6925L63.7481 31.0351L56.6197 23.911L22.9827 57.5684L30.1111 64.6925Z" fill="#B0FFEC"/>
<path d="M53.2496 50.7742L69.176 34.8403L59.9434 25.6119L44.0169 41.5459L53.2496 50.7742Z" fill="#B0FFEC"/>
<path d="M48.6338 46.1597L64.5582 30.2246L59.9419 25.6114L44.0176 41.5465L48.6338 46.1597Z" fill="#92D8B7"/>
<path d="M37.1752 70.7544L55.7538 52.167L42.6227 39.0422L24.0441 57.6296L37.1752 70.7544Z" fill="#70FF00"/>
<path d="M30.609 64.1915L49.188 45.6039L42.6232 39.0422L24.0443 57.6298L30.609 64.1915Z" fill="#70FF00"/>
<path d="M72.3573 42.682L75.3093 39.7287L55.0525 19.4806L52.1005 22.4339L72.3573 42.682Z" fill="#1D3867"/>
<path d="M62.2279 32.5575L65.18 29.6043L55.0526 19.4807L52.1005 22.434L62.2279 32.5575Z" fill="#101E38"/>
<path d="M80.3463 28.2265L83.0062 25.5656L69.2116 11.7766L66.5518 14.4376L80.3463 28.2265Z" fill="#1D3867"/>
<path d="M73.4486 21.3319L76.1087 18.6706L69.2115 11.7768L66.5515 14.4381L73.4486 21.3319Z" fill="#101E38"/>
<path d="M39.474 67.0693L40.2288 66.3142L34.8115 60.8995L34.0567 61.6546L39.474 67.0693Z" fill="white"/>
<path d="M43.7523 62.789L44.507 62.0339L39.0897 56.6192L38.335 57.3743L43.7523 62.789Z" fill="white"/>
<path d="M48.0304 58.5084L48.7856 57.7528L43.3683 52.3381L42.6131 53.0936L48.0304 58.5084Z" fill="white"/>
<path d="M52.31 54.2273L53.0645 53.4722L47.6462 48.0575L46.8916 48.8126L52.31 54.2273Z" fill="white"/>
<path d="M56.5882 49.9469L57.3429 49.1918L51.9255 43.7772L51.1708 44.5323L56.5882 49.9469Z" fill="white"/>
<path d="M60.8664 45.6666L61.6209 44.9118L56.2039 39.4964L55.4493 40.2511L60.8664 45.6666Z" fill="white"/>
<path d="M65.1447 41.3857L65.8995 40.6306L60.4828 35.2154L59.728 35.9704L65.1447 41.3857Z" fill="white"/>
</g>
<defs>
<radialGradient id="paint0_radial_40_2812" cx="0" cy="0" r="1" gradientUnits="userSpaceOnUse" gradientTransform="translate(48.6854 46.2953) rotate(90) scale(50.2672 31.9605)">
<stop stop-color="#70FF00"/>
<stop offset="1" stop-color="#70FF00" stop-opacity="0"/>
</radialGradient>
<clipPath id="clip0_40_2812">
<rect width="96" height="90" fill="white" transform="translate(96.0216 90) rotate(179.986)"/>
</clipPath>
</defs>
</svg>
