<svg width="61" height="61" viewBox="0 0 61 61" fill="none" xmlns="http://www.w3.org/2000/svg">
<path d="M0.504974 21.8613C0.151227 28.9363 3.21703 35.3037 8.05156 39.5486V60.4197H26.918V37.4262L0.85872 18.5597C0.740804 19.3851 0.504974 20.918 0.504974 21.8613ZM60.5239 32.4737C58.0477 26.9317 54.746 14.6685 51.9161 10.5415C47.789 4.76361 38.8275 0.164912 31.8705 0.0469971H24.088C14.3011 0.0469971 5.45742 6.06068 2.03787 14.6685L28.6867 34.0066H60.7597C60.7597 33.535 60.6418 32.9454 60.5239 32.4737ZM38.2379 26.46C36.1154 26.46 34.4646 24.8092 34.4646 22.6867C34.4646 20.6822 36.1154 18.9135 38.2379 18.9135C40.2425 18.9135 42.0112 20.6822 42.0112 22.6867C41.8933 24.8092 40.2425 26.46 38.2379 26.46ZM40.1245 43.4399H58.991L60.8776 37.7799H30.6913V60.4197H47.789C50.8548 60.4197 54.0386 58.1793 54.9819 55.3493L55.2177 54.7597H40.1245C39.0633 54.7597 38.2379 53.9343 38.2379 52.8731C38.2379 51.9298 39.0633 50.9864 40.1245 50.9864H56.3969L57.6939 47.2131H40.1245C39.0633 47.2131 38.2379 46.3877 38.2379 45.3265C38.2379 44.3832 39.0633 43.4399 40.1245 43.4399Z" fill="black"/>
</svg>
