<svg width="117" height="117" viewBox="0 0 117 117" fill="none" xmlns="http://www.w3.org/2000/svg">
<g clip-path="url(#clip0_40_2839)">
<path d="M45.6104 101.047L46.6936 100.649C44.2244 93.9647 44.7301 95.3488 47.378 93.8147C49.4935 95.3871 50.7819 96.8053 54.0389 101.399L55.4821 100.383C48.9357 91.1438 50.3166 91.956 52.061 90.0904C53.2622 90.6666 54.3903 91.4725 56.6941 93.3818L57.4322 92.4978C55.1396 90.5954 54.0783 89.7465 53.2978 88.6373C54.7919 86.7058 53.7803 84.9821 64.1577 89.7512L64.8974 88.1544C54.4768 83.3599 56.4126 83.6899 57.1187 80.45C58.4442 80.3531 59.8261 80.4899 62.771 80.9953L62.9666 79.862C56.1843 78.6962 57.5916 79.0242 57.5906 76.1159C59.8951 75.1593 61.836 74.7683 67.2572 74.275L67.0953 72.5233C55.8847 73.5397 57.5528 72.9093 56.6626 70.0596C57.8164 69.2404 59.058 68.6648 62.0447 67.5708L61.6455 66.4911C58.664 67.5835 57.4173 68.0673 55.9569 68.1436C54.9739 65.8271 52.8987 65.8508 62.3986 59.1802L61.3793 57.7414C56.7761 60.9743 55.2932 62.0841 52.568 62.7209C52.0858 62.1664 51.5747 61.6424 51.0401 61.1469C51.6189 59.9516 52.4277 58.8281 54.3464 56.536L53.4581 55.7995C51.5477 58.0828 50.6944 59.1384 49.5813 59.9158C47.634 58.4222 45.9087 59.4304 50.7002 49.1055L49.0947 48.3677C43.4834 60.4601 40.5222 58.4637 41.9056 50.4851L40.7674 50.2897C40.2576 53.2262 40.0496 54.5652 39.4717 55.7954C37.1256 55.5123 36.1801 57.2044 35.1564 46.0189L33.3964 46.1788C33.8874 51.5537 34.1129 53.4548 33.4085 55.9673C32.5775 56.1165 31.7471 56.3106 30.9218 56.5661C30.099 55.418 29.5205 54.1818 28.4211 51.2076L27.3373 51.6047C28.4345 54.5735 28.9201 55.8144 28.9964 57.2687C26.6579 58.2528 26.6936 60.31 19.9933 50.8555L18.5497 51.8707C25.0961 61.1101 23.713 60.2995 21.9702 62.1645C20.7689 61.5883 19.6409 60.7824 17.3377 58.8725L16.5986 59.7559C18.8919 61.6586 19.9529 62.5081 20.7333 63.6163C19.2329 65.5564 20.2458 67.2722 9.87478 62.5027L9.13377 64.1001C19.4911 68.8646 17.6223 68.5461 16.9131 71.8039C15.5869 71.9005 14.2054 71.7644 11.2604 71.2584L11.0642 72.3913C14.0146 72.8989 15.3589 73.1059 16.5951 73.6819C16.3114 76.0139 18.0138 76.9582 6.77461 77.9787L6.93522 79.73C12.3341 79.2414 14.2429 79.0172 16.7678 79.7176C17.2592 82.4461 18.654 82.2406 11.9862 84.6841L12.3853 85.7632C19.1002 83.3036 17.7101 83.8089 19.2507 86.444C17.6713 88.5509 16.2469 89.8333 11.6325 93.0744L12.6522 94.5128C17.2553 91.2797 18.739 90.1705 21.4642 89.5334C23.0321 91.3351 24.0351 90.5178 19.6848 95.7189L20.5724 96.4541C24.9794 91.1881 23.9537 92.2359 26.5778 93.7725C26.2626 96.2993 25.6498 98.1497 23.3307 103.15L24.9358 103.887C29.7215 93.5727 29.4013 95.4339 32.6735 96.1413C32.7705 97.461 32.6334 98.8375 32.1255 101.77L33.2634 101.964C33.7733 99.0268 33.9812 97.6884 34.5591 96.4579C36.9011 96.7407 37.8495 95.0426 38.8751 106.236L40.6348 106.075C40.1441 100.7 39.9183 98.7998 40.6227 96.2863C43.3651 95.7965 43.1549 94.409 45.6104 101.047V101.047Z" fill="#F17F49"/>
<path d="M23.6668 88.2368C22.4879 88.6687 20.6484 86.6273 19.5582 83.6775C18.4683 80.7287 18.5402 77.9869 19.7191 77.555C20.8984 77.1231 22.7376 79.1645 23.8274 82.1133C24.9177 85.0631 24.8458 87.8049 23.6668 88.2368Z" fill="url(#paint0_radial_40_2839)"/>
<path d="M52.6929 72.1028C51.7067 72.4644 50.1678 70.7565 49.2557 68.2886C48.3439 65.8214 48.404 63.528 49.3905 63.1667C50.3767 62.8051 51.9157 64.513 52.8275 66.9803C53.7396 69.4481 53.6795 71.7415 52.6929 72.1028V72.1028Z" fill="url(#paint1_radial_40_2839)"/>
<path d="M21.8474 71.3945C20.774 70.7448 21.2336 68.0413 22.8746 65.355C24.5138 62.6705 26.7142 61.0202 27.7873 61.6696C28.8606 62.32 28.4007 65.0231 26.761 67.7076C25.1202 70.3939 22.9207 72.0449 21.8474 71.3945Z" fill="url(#paint2_radial_40_2839)"/>
<path d="M38.995 91.4861C38.8618 92.8429 36.5904 93.7314 33.9224 93.4708C31.2548 93.2115 29.1993 91.9012 29.3323 90.5451C29.4655 89.1892 31.7369 88.3004 34.4052 88.5604C37.0731 88.8203 39.1283 90.1293 38.995 91.4861Z" fill="url(#paint3_radial_40_2839)"/>
<path d="M44.6232 60.4512C44.49 61.8077 42.2189 62.6962 39.5509 62.4359C36.883 62.1766 34.8275 60.8663 34.9608 59.5102C35.094 58.1543 37.3654 57.2652 40.0334 57.5255C42.7017 57.7854 44.7565 59.0944 44.6232 60.4512Z" fill="url(#paint4_radial_40_2839)"/>
<path d="M50.8242 86.8531C51.3031 87.6105 50.4833 88.9818 48.993 89.9162C47.503 90.8503 45.9068 90.9937 45.4272 90.2363C44.9486 89.4789 45.7681 88.1073 47.2584 87.1729C48.7484 86.2388 50.3446 86.0953 50.8242 86.8531Z" fill="url(#paint5_radial_40_2839)"/>
<path d="M54.4199 76.4088C55.2172 76.822 55.2041 78.4179 54.3915 79.9735C53.5787 81.5285 52.2731 82.4547 51.4752 82.0415C50.6779 81.6279 50.6906 80.0318 51.5035 78.4764C52.3161 76.9214 53.6216 75.9953 54.4199 76.4088Z" fill="url(#paint6_radial_40_2839)"/>
<path d="M38.1032 72.1491C36.6712 72.6737 35.0829 71.9432 34.5562 70.5174C34.0293 69.0916 34.763 67.5106 36.1951 66.986C37.6272 66.4613 39.2151 67.1918 39.7421 68.6176C40.269 70.0434 39.5353 71.6247 38.1032 72.1491Z" fill="url(#paint7_radial_40_2839)"/>
<path d="M47.1223 77.8641C45.8006 78.3482 44.3344 77.6738 43.8482 76.3578C43.3619 75.0419 44.0393 73.5822 45.361 73.098C46.6828 72.6136 48.1489 73.288 48.6352 74.6043C49.1214 75.9202 48.4443 77.3796 47.1223 77.8641Z" fill="url(#paint8_radial_40_2839)"/>
<path d="M42.375 85.2398C41.4938 85.5628 40.5165 85.1131 40.1921 84.2357C39.868 83.3583 40.3196 82.3853 41.2009 82.0627C42.0818 81.7397 43.0594 82.1893 43.3835 83.0667C43.7079 83.9441 43.2563 84.9171 42.375 85.2398V85.2398Z" fill="url(#paint9_radial_40_2839)"/>
<path d="M33.8009 81.955C32.9747 82.2577 32.0584 81.8363 31.7544 81.0136C31.4503 80.191 31.8736 79.2791 32.6999 78.9764C33.5261 78.6737 34.4424 79.0948 34.7464 79.9178C35.0505 80.7404 34.6272 81.6523 33.8009 81.955Z" fill="url(#paint10_radial_40_2839)"/>
<path d="M29.4531 75.0925C28.2414 75.5364 26.8974 74.9184 26.4515 73.712C26.006 72.5056 26.6268 71.1678 27.8385 70.7239C29.0502 70.2799 30.3938 70.8983 30.8397 72.1044C31.2856 73.3108 30.6648 74.6486 29.4531 75.0925Z" fill="url(#paint11_radial_40_2839)"/>
<path d="M30.2097 85.4127C29.3284 85.7353 28.3511 85.2857 28.0271 84.4086C27.7027 83.5312 28.1543 82.5582 29.0355 82.2352C29.9168 81.9126 30.8941 82.3619 31.2182 83.2393C31.5426 84.1167 31.091 85.0897 30.2097 85.4127Z" fill="url(#paint12_radial_40_2839)"/>
<path d="M43.7416 67.4907C43.2458 67.6724 42.6963 67.4191 42.5137 66.9258C42.3315 66.4325 42.5853 65.885 43.0811 65.7033C43.5769 65.5218 44.1264 65.7748 44.309 66.2682C44.4912 66.7615 44.2374 67.3089 43.7416 67.4907Z" fill="url(#paint13_radial_40_2839)"/>
<path d="M33.5389 68.0717C32.768 68.3542 31.9128 67.9612 31.6291 67.1931C31.3451 66.4252 31.7404 65.5741 32.5116 65.2917C33.2825 65.0089 34.1377 65.4022 34.4214 66.17C34.7054 66.9382 34.3101 67.7893 33.5389 68.0717Z" fill="url(#paint14_radial_40_2839)"/>
<path d="M38.809 78.6547C38.0377 78.9375 37.1829 78.5442 36.8992 77.7763C36.6152 77.0082 37.0105 76.1571 37.7814 75.8746C38.5526 75.5922 39.4075 75.9851 39.6915 76.7533C39.9752 77.5211 39.5802 78.3723 38.809 78.6547Z" fill="url(#paint15_radial_40_2839)"/>
<path d="M49.0089 84.5008C47.8525 84.9244 46.5696 84.3342 46.144 83.1829C45.7185 82.0313 46.311 80.754 47.4677 80.3304C48.6244 79.9067 49.907 80.4969 50.3328 81.6482C50.7584 82.7998 50.1655 84.0771 49.0089 84.5008Z" fill="url(#paint16_radial_40_2839)"/>
<path d="M41.1013 94.049C40.6055 94.2307 40.056 93.9774 39.8734 93.4841C39.6912 92.9908 39.945 92.4433 40.4408 92.2619C40.9366 92.0801 41.4861 92.3331 41.6687 92.8264C41.8509 93.3201 41.5971 93.8675 41.1013 94.049V94.049Z" fill="url(#paint17_radial_40_2839)"/>
<path d="M18.8525 73.6775C18.2466 73.8994 17.5746 73.5904 17.3517 72.9872C17.1288 72.384 17.4392 71.715 18.045 71.493C18.6509 71.271 19.3229 71.5804 19.5458 72.1836C19.7687 72.7865 19.458 73.4555 18.8525 73.6775Z" fill="url(#paint18_radial_40_2839)"/>
<path d="M31.3956 60.74C30.7898 60.962 30.1178 60.6529 29.8948 60.0497C29.6719 59.4465 29.9823 58.7775 30.5882 58.5555C31.194 58.3335 31.866 58.6429 32.0889 59.2458C32.3119 59.849 32.0012 60.518 31.3956 60.74Z" fill="url(#paint19_radial_40_2839)"/>
<path d="M67.2585 76.0051C66.1495 76.1146 65.1229 74.9174 64.9642 73.3307C64.8058 71.7434 65.5764 70.3686 66.6854 70.2587C67.7937 70.1489 68.821 71.3461 68.9793 72.9334C69.1377 74.52 68.3671 75.8955 67.2585 76.0051Z" fill="url(#paint20_radial_40_2839)"/>
<path d="M63.3339 91.501C62.287 91.1201 61.8837 89.5983 62.4323 88.1C62.9819 86.6013 64.275 85.6961 65.3223 86.0757C66.3686 86.4563 66.7722 87.9787 66.2236 89.4767C65.6747 90.9751 64.3809 91.8806 63.3339 91.501Z" fill="url(#paint21_radial_40_2839)"/>
<path d="M52.2111 102.157C51.6498 101.198 52.3161 99.7706 53.6995 98.967C55.0836 98.163 56.6601 98.29 57.222 99.2475C57.7827 100.206 57.1161 101.634 55.733 102.437C54.3489 103.241 52.7724 103.115 52.2111 102.157V102.157Z" fill="url(#paint22_radial_40_2839)"/>
<path d="M36.8057 106.026C36.793 104.916 38.0794 104.002 39.6816 103.982C41.2836 103.964 42.5916 104.848 42.6056 105.957C42.6183 107.066 41.3306 107.98 39.7297 108C38.1277 108.019 36.8187 107.135 36.8057 106.026Z" fill="url(#paint23_radial_40_2839)"/>
<path d="M21.4778 102.273C21.9616 101.272 23.5222 101.022 24.9657 101.714C26.4099 102.405 27.1865 103.776 26.7047 104.776C26.2216 105.775 24.6601 106.025 23.2168 105.334C21.7727 104.643 20.9951 103.272 21.4778 102.273Z" fill="#FF834E"/>
<path d="M10.8798 90.9804C11.8291 90.3978 13.279 91.026 14.1189 92.3841C14.9595 93.7415 14.8701 95.3143 13.9217 95.8965C12.974 96.4779 11.5235 95.8491 10.6829 94.4913C9.84298 93.1336 9.93108 91.5618 10.8798 90.9804V90.9804Z" fill="#FF834E"/>
<path d="M6.64239 75.7568C7.74818 75.6051 8.81931 76.7621 9.03685 78.3428C9.25597 79.9222 8.53658 81.3252 7.43301 81.4769C6.33008 81.6282 5.258 80.4693 5.03887 78.8896C4.82102 77.3099 5.53945 75.9072 6.64239 75.7568V75.7568Z" fill="#FF834E"/>
<path d="M10.0042 60.7713C11.0944 61.0072 11.7012 62.46 11.3603 64.0194C11.0207 65.5769 9.86048 66.6487 8.77154 66.4132C7.68387 66.1779 7.0777 64.723 7.41672 63.1648C7.75765 61.6063 8.91656 60.5348 10.0042 60.7713V60.7713Z" fill="url(#paint24_radial_40_2839)"/>
<path d="M21.2651 49.4316C21.9997 50.2675 21.6181 51.794 20.4121 52.8453C19.208 53.8956 17.6344 54.0681 16.901 53.2341C16.1674 52.3998 16.5506 50.8714 17.755 49.8207C18.9606 48.7708 20.5326 48.5966 21.2651 49.4316V49.4316Z" fill="url(#paint25_radial_40_2839)"/>
<path d="M36.9637 45.7161C37.0817 46.8199 35.8875 47.8503 34.2935 48.0194C32.7024 48.1888 31.3158 47.4288 31.1966 46.3266C31.0795 45.2238 32.276 44.1931 33.868 44.0234C35.4604 43.8553 36.8467 44.613 36.9637 45.7161Z" fill="url(#paint26_radial_40_2839)"/>
<path d="M52.5673 49.8018C52.1186 50.8188 50.5685 51.1228 49.1001 50.4809C47.6346 49.842 46.8097 48.4969 47.2568 47.4805C47.7046 46.4653 49.2576 46.1626 50.7243 46.8026C52.1904 47.4438 53.0154 48.7866 52.5673 49.8018V49.8018Z" fill="url(#paint27_radial_40_2839)"/>
<path d="M63.7585 60.6871C62.8598 61.3448 61.3647 60.8372 60.4147 59.552C59.4648 58.2689 59.4247 56.6937 60.3212 56.0354C61.2187 55.379 62.7167 55.8891 63.666 57.1718C64.6144 58.4561 64.656 60.0301 63.7585 60.6871Z" fill="url(#paint28_radial_40_2839)"/>
<path d="M62.6088 68.7838C61.9063 69.0751 60.998 68.4976 60.5769 67.4929C60.1559 66.4895 60.3855 65.4386 61.0871 65.1469C61.7886 64.8569 62.6982 65.4357 63.119 66.4391C63.5388 67.4432 63.3107 68.4928 62.6088 68.7838Z" fill="url(#paint29_radial_40_2839)"/>
<path d="M62.5589 82.4366C61.8023 82.3568 61.283 81.4167 61.3975 80.3341C61.511 79.2522 62.218 78.4397 62.9746 78.5179C63.7296 78.599 64.2496 79.5403 64.1354 80.622C64.0209 81.7033 63.3149 82.5158 62.5589 82.4366V82.4366Z" fill="url(#paint30_radial_40_2839)"/>
<path d="M55.5889 94.25C54.9723 93.8055 54.9923 92.7324 55.6328 91.8505C56.2717 90.9681 57.2914 90.6141 57.908 91.0574C58.5228 91.5013 58.5034 92.5763 57.8635 93.4575C57.223 94.3384 56.205 94.6933 55.5889 94.25V94.25Z" fill="url(#paint31_radial_40_2839)"/>
<path d="M44.2123 101.364C43.9636 100.648 44.5975 99.7798 45.6307 99.4236C46.6621 99.0658 47.7018 99.358 47.9511 100.073C48.1992 100.788 47.5634 101.657 46.532 102.014C45.4997 102.37 44.4613 102.079 44.2123 101.364Z" fill="url(#paint32_radial_40_2839)"/>
<path d="M30.8397 101.178C31.0261 100.443 32.0346 100.064 33.0949 100.33C34.1539 100.595 34.8625 101.407 34.6765 102.141C34.4895 102.874 33.4794 103.254 32.4203 102.988C31.3616 102.721 30.6537 101.912 30.8397 101.178V101.178Z" fill="url(#paint33_radial_40_2839)"/>
<path d="M18.6585 94.6768C19.1091 94.0667 20.1866 94.0933 21.0685 94.7373C21.9492 95.3795 22.298 96.3971 21.8483 97.0079C21.3977 97.6165 20.3189 97.5896 19.4383 96.9471C18.558 96.3025 18.2088 95.2873 18.6585 94.6768Z" fill="url(#paint34_radial_40_2839)"/>
<path d="M11.3673 83.4524C12.0368 83.0914 12.9998 83.573 13.5213 84.5308C14.0423 85.4865 13.9211 86.5542 13.2526 86.9158C12.5841 87.2748 11.6205 86.791 11.0992 85.836C10.5799 84.8798 10.6994 83.8124 11.3673 83.4524V83.4524Z" fill="url(#paint35_radial_40_2839)"/>
<path d="M11.4077 70.0171C12.1624 70.1169 12.6579 71.0703 12.5144 72.15C12.3723 73.2278 11.6446 74.021 10.8903 73.9222C10.1375 73.8225 9.64262 72.8675 9.78478 71.7897C9.92853 70.7118 10.6546 69.9183 11.4077 70.0171Z" fill="url(#paint36_radial_40_2839)"/>
<path d="M17.8297 57.7402C18.5093 58.0831 18.6598 59.146 18.1655 60.1178C17.6729 61.0883 16.723 61.5974 16.0436 61.2551C15.3666 60.9132 15.2168 59.8486 15.7091 58.8785C16.2033 57.9089 17.152 57.3985 17.8297 57.7402Z" fill="url(#paint37_radial_40_2839)"/>
<path d="M29.7486 50.6329C30.0262 51.3393 29.4274 52.2319 28.4087 52.6293C27.392 53.0267 26.3428 52.7766 26.0651 52.0708C25.7888 51.3669 26.3892 50.4733 27.405 50.0763C28.4227 49.6805 29.4719 49.929 29.7486 50.6329V50.6329Z" fill="url(#paint38_radial_40_2839)"/>
<path d="M43.3333 50.4717C43.3371 51.2298 42.4552 51.8479 41.3615 51.8539C40.2694 51.8602 39.3811 51.2513 39.3773 50.493C39.3735 49.7371 40.2566 49.1188 41.3481 49.1118C42.4406 49.108 43.3295 49.715 43.3333 50.4717Z" fill="url(#paint39_radial_40_2839)"/>
<path d="M55.4315 57.1917C54.9936 57.8124 53.9154 57.807 53.0202 57.1807C52.1265 56.5563 51.7573 55.5471 52.1952 54.9265C52.6319 54.3085 53.7122 54.3145 54.6056 54.9386C55.498 55.5655 55.8688 56.5727 55.4315 57.1917Z" fill="url(#paint40_radial_40_2839)"/>
</g>
<g clip-path="url(#clip1_40_2839)">
<path d="M76.8233 44.8939L77.6187 44.6016C75.8054 39.6929 76.1768 40.7092 78.1213 39.5826C79.6749 40.7374 80.6211 41.7789 83.0129 45.1522L84.0728 44.4065C79.2653 37.6212 80.2794 38.2177 81.5604 36.8476C82.4426 37.2708 83.271 37.8626 84.9629 39.2648L85.5049 38.6155C83.8212 37.2185 83.0419 36.5951 82.4687 35.7805C83.566 34.3621 82.823 33.0962 90.4439 36.5986L90.9871 35.4259C83.3345 31.9049 84.7562 32.1472 85.2746 29.768C86.2481 29.6968 87.2629 29.7973 89.4256 30.1684L89.5692 29.3362C84.5885 28.48 85.6219 28.7209 85.6212 26.5851C87.3136 25.8826 88.739 25.5955 92.7201 25.2332L92.6012 23.9468C84.3685 24.6932 85.5934 24.2303 84.9397 22.1375C85.7871 21.5359 86.6989 21.1132 88.8922 20.3098L88.5991 19.5169C86.4095 20.3191 85.494 20.6744 84.4215 20.7305C83.6996 19.0293 82.1756 19.0467 89.1521 14.148L88.4036 13.0914C85.0231 15.4655 83.934 16.2805 81.9327 16.7481C81.5786 16.341 81.2033 15.9561 80.8107 15.5922C81.2358 14.7144 81.8297 13.8894 83.2388 12.2061L82.5864 11.6653C81.1835 13.342 80.5568 14.1173 79.7394 14.6882C78.3094 13.5913 77.0423 14.3317 80.5611 6.74933L79.3821 6.20753C75.2612 15.0879 73.0866 13.6218 74.1026 7.76246L73.2667 7.61899C72.8923 9.77548 72.7396 10.7589 72.3152 11.6622C70.5923 11.4543 69.8979 12.697 69.1461 4.48262L67.8536 4.60005C68.2142 8.54725 68.3798 9.94337 67.8625 11.7885C67.2522 11.898 66.6424 12.0406 66.0363 12.2282C65.4321 11.3851 65.0073 10.4773 64.1999 8.2931L63.4039 8.58469C64.2097 10.7649 64.5663 11.6762 64.6224 12.7442C62.905 13.4669 62.9312 14.9777 58.0107 8.03452L56.9506 8.78002C61.7581 15.5653 60.7423 14.97 59.4625 16.3396C58.5803 15.9164 57.7519 15.3246 56.0605 13.922L55.5177 14.5707C57.2019 15.968 57.981 16.5919 58.5542 17.4057C57.4523 18.8304 58.1961 20.0905 50.5799 16.5879L50.0357 17.761C57.6419 21.2599 56.2695 21.026 55.7487 23.4185C54.7748 23.4894 53.7602 23.3894 51.5975 23.0179L51.4534 23.8499C53.6201 24.2226 54.6073 24.3747 55.5152 24.7976C55.3068 26.5102 56.557 27.2036 48.3032 27.9531L48.4212 29.2392C52.386 28.8804 53.7878 28.7158 55.642 29.2301C56.0028 31.2339 57.0272 31.0829 52.1305 32.8774L52.4236 33.6698C57.3549 31.8636 56.334 32.2347 57.4653 34.1698C56.3055 35.717 55.2594 36.6588 51.8708 39.039L52.6195 40.0954C56 37.721 57.0895 36.9064 59.0909 36.4386C60.2423 37.7617 60.9789 37.1615 57.7841 40.9811L58.436 41.521C61.6723 37.6538 60.9191 38.4232 62.8462 39.5517C62.6147 41.4073 62.1647 42.7662 60.4616 46.4381L61.6403 46.9794C65.1549 39.405 64.9197 40.7718 67.3227 41.2913C67.394 42.2605 67.2933 43.2713 66.9203 45.4245L67.756 45.5675C68.1304 43.4103 68.2831 42.4274 68.7075 41.5238C70.4274 41.7314 71.1238 40.4844 71.877 48.7046L73.1693 48.5864C72.8089 44.6392 72.6431 43.2436 73.1604 41.3978C75.1744 41.038 75.02 40.0191 76.8233 44.8939V44.8939Z" fill="#F17F49"/>
<path d="M60.7085 35.4864C59.8427 35.8036 58.4918 34.3044 57.6912 32.1382C56.8908 29.9726 56.9436 27.9591 57.8094 27.642C58.6754 27.3248 60.026 28.8239 60.8264 30.9895C61.627 33.1557 61.5742 35.1692 60.7085 35.4864Z" fill="url(#paint41_radial_40_2839)"/>
<path d="M82.0245 23.638C81.3002 23.9036 80.1701 22.6493 79.5002 20.837C78.8306 19.0251 78.8748 17.3409 79.5993 17.0755C80.3235 16.81 81.4537 18.0643 82.1233 19.8761C82.7931 21.6885 82.749 23.3727 82.0245 23.638V23.638Z" fill="url(#paint42_radial_40_2839)"/>
<path d="M59.3723 23.1178C58.5841 22.6407 58.9215 20.6553 60.1267 18.6826C61.3304 16.7112 62.9464 15.4992 63.7344 15.9761C64.5226 16.4538 64.1849 18.4389 62.9807 20.4103C61.7758 22.3831 60.1605 23.5955 59.3723 23.1178Z" fill="url(#paint43_radial_40_2839)"/>
<path d="M71.9651 37.8726C71.8672 38.869 70.1992 39.5215 68.2399 39.3301C66.2808 39.1397 64.7714 38.1775 64.869 37.1815C64.9669 36.1858 66.6349 35.5331 68.5944 35.724C70.5537 35.9149 72.0629 36.8762 71.9651 37.8726Z" fill="url(#paint44_radial_40_2839)"/>
<path d="M76.0983 15.0814C76.0004 16.0775 74.3326 16.73 72.3733 16.5389C70.4141 16.3484 68.9046 15.3862 69.0024 14.3903C69.1003 13.3946 70.7684 12.7416 72.7276 12.9328C74.6872 13.1237 76.1962 14.085 76.0983 15.0814Z" fill="url(#paint45_radial_40_2839)"/>
<path d="M80.6521 34.4702C81.0039 35.0264 80.4018 36.0335 79.3073 36.7197C78.2131 37.4057 77.0409 37.511 76.6887 36.9548C76.3372 36.3986 76.9391 35.3913 78.0335 34.7051C79.1277 34.0191 80.2999 33.9138 80.6521 34.4702Z" fill="url(#paint46_radial_40_2839)"/>
<path d="M83.2927 26.8002C83.8782 27.1037 83.8686 28.2756 83.2719 29.418C82.675 30.56 81.7162 31.2401 81.1302 30.9367C80.5447 30.633 80.554 29.4608 81.151 28.3186C81.7477 27.1767 82.7065 26.4965 83.2927 26.8002Z" fill="url(#paint47_radial_40_2839)"/>
<path d="M71.3102 23.672C70.2585 24.0573 69.0921 23.5208 68.7054 22.4737C68.3184 21.4266 68.8572 20.2656 69.9089 19.8803C70.9606 19.495 72.1267 20.0315 72.5137 21.0785C72.9007 22.1256 72.3619 23.2869 71.3102 23.672Z" fill="url(#paint48_radial_40_2839)"/>
<path d="M77.9336 27.8689C76.9629 28.2245 75.8862 27.7292 75.5291 26.7628C75.172 25.7964 75.6695 24.7244 76.6401 24.3689C77.6108 24.0131 78.6875 24.5084 79.0446 25.475C79.4017 26.4414 78.9044 27.5131 77.9336 27.8689Z" fill="url(#paint49_radial_40_2839)"/>
<path d="M74.4473 33.2855C73.8001 33.5227 73.0824 33.1925 72.8442 32.5481C72.6062 31.9038 72.9378 31.1892 73.585 30.9523C74.232 30.7151 74.9499 31.0453 75.1879 31.6896C75.4261 32.334 75.0945 33.0485 74.4473 33.2855V33.2855Z" fill="url(#paint50_radial_40_2839)"/>
<path d="M68.1507 30.8732C67.5439 31.0955 66.871 30.786 66.6478 30.1819C66.4245 29.5778 66.7353 28.9081 67.3421 28.6858C67.9489 28.4635 68.6218 28.7728 68.845 29.3771C69.0683 29.9812 68.7574 30.6509 68.1507 30.8732Z" fill="url(#paint51_radial_40_2839)"/>
<path d="M64.9577 25.8336C64.0679 26.1596 63.0809 25.7057 62.7535 24.8197C62.4263 23.9338 62.8821 22.9514 63.772 22.6253C64.6618 22.2993 65.6486 22.7535 65.976 23.6392C66.3035 24.5251 65.8476 25.5076 64.9577 25.8336Z" fill="url(#paint52_radial_40_2839)"/>
<path d="M65.5134 33.4124C64.8662 33.6494 64.1485 33.3192 63.9105 32.6751C63.6723 32.0307 64.0039 31.3162 64.6511 31.079C65.2983 30.8421 66.016 31.172 66.254 31.8164C66.4922 32.4607 66.1606 33.1753 65.5134 33.4124Z" fill="url(#paint53_radial_40_2839)"/>
<path d="M75.4509 20.251C75.0868 20.3845 74.6832 20.1984 74.5491 19.8362C74.4153 19.4739 74.6017 19.0718 74.9658 18.9384C75.3299 18.8051 75.7335 18.9909 75.8675 19.3532C76.0014 19.7155 75.815 20.1175 75.4509 20.251Z" fill="url(#paint54_radial_40_2839)"/>
<path d="M67.9582 20.6777C67.3921 20.8851 66.7641 20.5965 66.5557 20.0324C66.3472 19.4685 66.6375 18.8435 67.2038 18.6361C67.77 18.4284 68.398 18.7172 68.6063 19.2811C68.8149 19.8452 68.5246 20.4703 67.9582 20.6777Z" fill="url(#paint55_radial_40_2839)"/>
<path d="M71.8285 28.4495C71.2621 28.6572 70.6343 28.3684 70.426 27.8045C70.2174 27.2404 70.5077 26.6153 71.0738 26.4079C71.6402 26.2005 72.268 26.4891 72.4766 27.0532C72.6849 27.6171 72.3948 28.2421 71.8285 28.4495Z" fill="url(#paint56_radial_40_2839)"/>
<path d="M79.319 32.7428C78.4698 33.0539 77.5276 32.6205 77.2152 31.775C76.9027 30.9293 77.3378 29.9912 78.1872 29.6801C79.0366 29.369 79.9786 29.8024 80.2913 30.6479C80.6038 31.4936 80.1684 32.4316 79.319 32.7428Z" fill="url(#paint57_radial_40_2839)"/>
<path d="M73.5119 39.7547C73.1478 39.8882 72.7442 39.7022 72.6102 39.3399C72.4763 38.9776 72.6627 38.5756 73.0268 38.4423C73.3909 38.3088 73.7945 38.4946 73.9286 38.8569C74.0624 39.2194 73.876 39.6215 73.5119 39.7547V39.7547Z" fill="url(#paint58_radial_40_2839)"/>
<path d="M57.1729 24.7944C56.728 24.9574 56.2345 24.7304 56.0708 24.2875C55.9071 23.8445 56.135 23.3532 56.5799 23.1902C57.0248 23.0272 57.5183 23.2543 57.6821 23.6973C57.8458 24.14 57.6176 24.6314 57.1729 24.7944Z" fill="url(#paint59_radial_40_2839)"/>
<path d="M66.3843 15.2934C65.9394 15.4564 65.4459 15.2295 65.2822 14.7865C65.1184 14.3435 65.3464 13.8522 65.7913 13.6892C66.2362 13.5262 66.7297 13.7534 66.8934 14.1961C67.0572 14.6391 66.829 15.1304 66.3843 15.2934Z" fill="url(#paint60_radial_40_2839)"/>
<path d="M92.7211 26.5037C91.9067 26.5842 91.1527 25.705 91.0362 24.5398C90.9199 23.3741 91.4858 22.3645 92.3002 22.2838C93.1141 22.2031 93.8685 23.0823 93.9848 24.2479C94.1011 25.4132 93.5352 26.4233 92.7211 26.5037Z" fill="url(#paint61_radial_40_2839)"/>
<path d="M89.839 37.8835C89.0701 37.6038 88.774 36.4863 89.1769 35.3859C89.5804 34.2854 90.5301 33.6206 91.2992 33.8994C92.0676 34.1789 92.3639 35.2969 91.9611 36.397C91.558 37.4973 90.6079 38.1624 89.839 37.8835Z" fill="url(#paint62_radial_40_2839)"/>
<path d="M81.6707 45.7091C81.2584 45.0045 81.7477 43.9565 82.7637 43.3664C83.7801 42.776 84.9379 42.8692 85.3506 43.5724C85.7623 44.276 85.2728 45.3247 84.257 45.9149C83.2406 46.5053 82.0829 46.4125 81.6707 45.7091V45.7091Z" fill="url(#paint63_radial_40_2839)"/>
<path d="M70.3573 48.5504C70.348 47.7349 71.2927 47.0638 72.4693 47.0497C73.6457 47.0359 74.6064 47.6852 74.6166 48.4997C74.626 49.3138 73.6803 49.9856 72.5046 49.9998C71.3282 50.0142 70.3669 49.3645 70.3573 48.5504Z" fill="url(#paint64_radial_40_2839)"/>
<path d="M59.1009 45.794C59.4562 45.0592 60.6022 44.8755 61.6623 45.3836C62.7229 45.891 63.2932 46.8978 62.9394 47.6324C62.5846 48.366 61.4379 48.5497 60.378 48.0421C59.3174 47.5345 58.7464 46.5279 59.1009 45.794Z" fill="#FF834E"/>
<path d="M51.318 37.5013C52.0151 37.0734 53.0799 37.5347 53.6967 38.5321C54.314 39.5289 54.2484 40.6839 53.5519 41.1115C52.8559 41.5385 51.7907 41.0767 51.1734 40.0796C50.5566 39.0825 50.6213 37.9282 51.318 37.5013V37.5013Z" fill="#FF834E"/>
<path d="M48.2061 26.3214C49.0182 26.21 49.8048 27.0597 49.9646 28.2205C50.1255 29.3804 49.5972 30.4107 48.7867 30.5221C47.9768 30.6332 47.1895 29.7822 47.0285 28.6221C46.8686 27.462 47.3962 26.4319 48.2061 26.3214V26.3214Z" fill="#FF834E"/>
<path d="M50.675 15.3164C51.4756 15.4897 51.9212 16.5565 51.6709 17.7017C51.4214 18.8456 50.5694 19.6327 49.7697 19.4597C48.971 19.2869 48.5258 18.2184 48.7748 17.0741C49.0251 15.9296 49.8762 15.1427 50.675 15.3164V15.3164Z" fill="url(#paint65_radial_40_2839)"/>
<path d="M58.9447 6.98883C59.4842 7.60271 59.2039 8.72374 58.3183 9.49574C57.434 10.267 56.2784 10.3938 55.7398 9.78129C55.201 9.16857 55.4825 8.04614 56.3669 7.27461C57.2523 6.50354 58.4068 6.37565 58.9447 6.98883V6.98883Z" fill="url(#paint66_radial_40_2839)"/>
<path d="M70.4734 4.26029C70.56 5.07089 69.683 5.82755 68.5125 5.95172C67.344 6.07612 66.3257 5.51805 66.2381 4.70861C66.1521 3.8987 67.0308 3.14182 68.2 3.01718C69.3694 2.89371 70.3874 3.45015 70.4734 4.26029Z" fill="url(#paint67_radial_40_2839)"/>
<path d="M81.9323 7.26066C81.6027 8.00755 80.4644 8.23078 79.386 7.75944C78.3098 7.29019 77.704 6.3024 78.0324 5.55598C78.3612 4.81049 79.5017 4.58819 80.5788 5.05813C81.6555 5.52901 82.2613 6.51517 81.9323 7.26066V7.26066Z" fill="url(#paint68_radial_40_2839)"/>
<path d="M90.1508 15.2546C89.4908 15.7376 88.3928 15.3648 87.6952 14.421C86.9976 13.4788 86.9681 12.3219 87.6265 11.8385C88.2856 11.3564 89.3857 11.7311 90.0828 12.673C90.7793 13.6162 90.8099 14.7721 90.1508 15.2546Z" fill="url(#paint69_radial_40_2839)"/>
<path d="M89.3065 21.2006C88.7906 21.4146 88.1235 20.9904 87.8143 20.2526C87.5051 19.5157 87.6737 18.7439 88.1889 18.5298C88.7042 18.3168 89.3721 18.7419 89.6811 19.4787C89.9894 20.2161 89.8219 20.9869 89.3065 21.2006Z" fill="url(#paint70_radial_40_2839)"/>
<path d="M89.2698 31.2269C88.7142 31.1683 88.3328 30.4779 88.4169 29.6829C88.5003 28.8883 89.0195 28.2916 89.5751 28.3491C90.1295 28.4086 90.5114 29.0999 90.4276 29.8942C90.3435 30.6883 89.825 31.285 89.2698 31.2269V31.2269Z" fill="url(#paint71_radial_40_2839)"/>
<path d="M84.1512 39.9024C83.6984 39.5759 83.7131 38.7878 84.1835 38.1402C84.6527 37.4922 85.4015 37.2322 85.8543 37.5578C86.3058 37.8838 86.2915 38.6732 85.8216 39.3203C85.3513 39.9672 84.6036 40.2279 84.1512 39.9024V39.9024Z" fill="url(#paint72_radial_40_2839)"/>
<path d="M75.7965 45.1266C75.6139 44.6009 76.0794 43.9633 76.8382 43.7017C77.5956 43.4389 78.3591 43.6535 78.5422 44.1788C78.7244 44.7039 78.2575 45.3419 77.5001 45.6042C76.742 45.8651 75.9794 45.6519 75.7965 45.1266Z" fill="url(#paint73_radial_40_2839)"/>
<path d="M65.9761 44.9901C66.1129 44.4506 66.8535 44.1718 67.6322 44.3672C68.4099 44.5618 68.9303 45.1582 68.7936 45.6975C68.6563 46.2358 67.9146 46.5144 67.1368 46.3195C66.3593 46.1235 65.8394 45.5289 65.9761 44.9901V44.9901Z" fill="url(#paint74_radial_40_2839)"/>
<path d="M57.0305 40.2158C57.3614 39.7677 58.1527 39.7873 58.8003 40.2602C59.447 40.7318 59.7033 41.4792 59.373 41.9277C59.0421 42.3746 58.2498 42.3549 57.6031 41.8831C56.9567 41.4096 56.7002 40.6641 57.0305 40.2158Z" fill="url(#paint75_radial_40_2839)"/>
<path d="M51.676 31.9728C52.1676 31.7078 52.8748 32.0614 53.2579 32.7648C53.6404 33.4666 53.5514 34.2507 53.0605 34.5163C52.5696 34.78 51.8619 34.4246 51.4791 33.7233C51.0977 33.0211 51.1855 32.2372 51.676 31.9728V31.9728Z" fill="url(#paint76_radial_40_2839)"/>
<path d="M51.7056 22.1063C52.2599 22.1796 52.6238 22.8797 52.5184 23.6726C52.414 24.4642 51.8796 25.0467 51.3257 24.9741C50.7728 24.9009 50.4094 24.1996 50.5138 23.408C50.6194 22.6165 51.1526 22.0338 51.7056 22.1063Z" fill="url(#paint77_radial_40_2839)"/>
<path d="M56.4218 13.0904C56.9209 13.3423 57.0314 14.1229 56.6685 14.8365C56.3067 15.5492 55.609 15.9231 55.1102 15.6717C54.6129 15.4206 54.5029 14.6388 54.8645 13.9264C55.2274 13.2144 55.9241 12.8395 56.4218 13.0904Z" fill="url(#paint78_radial_40_2839)"/>
<path d="M65.1747 7.87105C65.3786 8.38983 64.9388 9.04533 64.1908 9.33716C63.4441 9.62898 62.6736 9.44528 62.4697 8.92697C62.2667 8.41006 62.7077 7.75385 63.4537 7.46226C64.201 7.1716 64.9715 7.35413 65.1747 7.87105V7.87105Z" fill="url(#paint79_radial_40_2839)"/>
<path d="M75.151 7.75268C75.1538 8.30936 74.5062 8.76326 73.703 8.76768C72.9009 8.77233 72.2486 8.32517 72.2458 7.76826C72.243 7.21321 72.8916 6.75908 73.6932 6.75397C74.4954 6.75117 75.1482 7.19694 75.151 7.75268Z" fill="url(#paint80_radial_40_2839)"/>
<path d="M84.0356 12.6877C83.714 13.1435 82.9223 13.1395 82.2648 12.6796C81.6085 12.221 81.3374 11.4799 81.659 11.0242C81.9797 10.5703 82.773 10.5747 83.4291 11.033C84.0845 11.4934 84.3568 12.2331 84.0356 12.6877Z" fill="url(#paint81_radial_40_2839)"/>
</g>
<g clip-path="url(#clip2_40_2839)">
<path d="M99.0361 80.7408L99.5439 80.5542C98.3864 77.421 98.6235 78.0697 99.8647 77.3506C100.856 78.0877 101.46 78.7525 102.987 80.9057L103.663 80.4297C100.595 76.0987 101.242 76.4794 102.06 75.6049C102.623 75.875 103.152 76.2527 104.232 77.1477L104.578 76.7333C103.503 75.8416 103.005 75.4437 102.64 74.9237C103.34 74.0184 102.866 73.2103 107.73 75.4459L108.077 74.6974C103.192 72.45 104.1 72.6046 104.431 71.0859C105.052 71.0405 105.7 71.1046 107.08 71.3415L107.172 70.8103C103.993 70.2638 104.652 70.4176 104.652 69.0543C105.732 68.6059 106.642 68.4226 109.183 68.1914L109.107 67.3703C103.852 67.8467 104.634 67.5512 104.217 66.2154C104.758 65.8314 105.34 65.5616 106.74 65.0488L106.553 64.5427C105.155 65.0547 104.571 65.2815 103.886 65.3173C103.425 64.2314 102.453 64.2426 106.906 61.1157L106.428 60.4413C104.27 61.9567 103.575 62.4769 102.297 62.7754C102.071 62.5155 101.832 62.2699 101.581 62.0376C101.853 61.4773 102.232 60.9507 103.131 59.8762L102.715 59.531C101.819 60.6013 101.419 61.0961 100.897 61.4605C99.9847 60.7604 99.1759 61.233 101.422 56.3932L100.669 56.0474C98.0391 61.7157 96.651 60.7798 97.2995 57.0399L96.766 56.9483C96.527 58.3248 96.4295 58.9525 96.1586 59.5291C95.0589 59.3964 94.6157 60.1896 94.1358 54.9464L93.3108 55.0213C93.541 57.5408 93.6467 58.4319 93.3165 59.6097C92.9269 59.6796 92.5377 59.7706 92.1508 59.8903C91.7652 59.3522 91.494 58.7727 90.9786 57.3786L90.4706 57.5647C90.9849 58.9563 91.2125 59.538 91.2483 60.2197C90.1522 60.681 90.1689 61.6453 87.0281 57.2135L86.3514 57.6894C89.42 62.0204 88.7717 61.6404 87.9548 62.5146C87.3917 62.2445 86.8629 61.8668 85.7833 60.9715L85.4368 61.3856C86.5118 62.2774 87.0092 62.6757 87.375 63.1951C86.6716 64.1045 87.1465 64.9088 82.2851 62.6731L81.9377 63.4219C86.7927 65.6553 85.9167 65.506 85.5843 67.0331C84.9626 67.0784 84.315 67.0145 82.9346 66.7774L82.8426 67.3084C84.2256 67.5463 84.8557 67.6434 85.4352 67.9134C85.3022 69.0065 86.1002 69.4491 80.8318 69.9275L80.9071 70.7484C83.4379 70.5194 84.3326 70.4143 85.5162 70.7426C85.7465 72.0216 86.4003 71.9253 83.2748 73.0707L83.4619 73.5765C86.6095 72.4235 85.9579 72.6604 86.68 73.8956C85.9397 74.8832 85.272 75.4843 83.109 77.0036L83.5869 77.6779C85.7447 76.1623 86.4401 75.6424 87.7176 75.3438C88.4525 76.1883 88.9227 75.8052 86.8835 78.2432L87.2996 78.5879C89.3653 76.1194 88.8846 76.6106 90.1146 77.3309C89.9669 78.5153 89.6796 79.3827 88.5925 81.7264L89.3449 82.072C91.5882 77.2372 91.4381 78.1097 92.972 78.4412C93.0174 79.0599 92.9532 79.7051 92.7151 81.0795L93.2485 81.1707C93.4875 79.7938 93.585 79.1664 93.8558 78.5897C94.9536 78.7222 95.3982 77.9262 95.879 83.1731L96.7038 83.0977C96.4738 80.5782 96.3679 79.6874 96.6981 78.5092C97.9836 78.2796 97.8851 77.6292 99.0361 80.7408V80.7408Z" fill="#F17F49"/>
<path d="M88.7501 74.736C88.1975 74.9384 87.3352 73.9816 86.8242 72.5988C86.3133 71.2166 86.347 69.9314 86.8996 69.7289C87.4524 69.5265 88.3145 70.4834 88.8254 71.8656C89.3364 73.2483 89.3027 74.5335 88.7501 74.736Z" fill="url(#paint82_radial_40_2839)"/>
<path d="M102.356 67.1732C101.894 67.3427 101.172 66.5421 100.745 65.3853C100.317 64.2288 100.346 63.1537 100.808 62.9844C101.27 62.8149 101.992 63.6155 102.419 64.772C102.847 65.9288 102.819 67.0038 102.356 67.1732V67.1732Z" fill="url(#paint83_radial_40_2839)"/>
<path d="M87.8972 66.8412C87.3941 66.5366 87.6095 65.2694 88.3787 64.0101C89.1471 62.7518 90.1785 61.9782 90.6815 62.2826C91.1847 62.5875 90.9691 63.8546 90.2005 65.1129C89.4314 66.3722 88.4004 67.146 87.8972 66.8412Z" fill="url(#paint84_radial_40_2839)"/>
<path d="M95.9352 76.2591C95.8727 76.8951 94.808 77.3116 93.5574 77.1894C92.3069 77.0679 91.3434 76.4537 91.4057 75.818C91.4682 75.1824 92.5329 74.7658 93.7837 74.8877C95.0343 75.0095 95.9976 75.6231 95.9352 76.2591Z" fill="url(#paint85_radial_40_2839)"/>
<path d="M98.5734 61.7115C98.5109 62.3474 97.4464 62.7638 96.1957 62.6418C94.9451 62.5203 93.9817 61.9061 94.0441 61.2704C94.1066 60.6348 95.1713 60.2181 96.4219 60.3401C97.6727 60.4619 98.6358 61.0755 98.5734 61.7115Z" fill="url(#paint86_radial_40_2839)"/>
<path d="M101.48 74.0874C101.705 74.4424 101.32 75.0852 100.622 75.5232C99.9233 75.9611 99.1751 76.0283 98.9502 75.6733C98.7259 75.3183 99.1101 74.6753 99.8086 74.2373C100.507 73.7994 101.255 73.7322 101.48 74.0874Z" fill="url(#paint87_radial_40_2839)"/>
<path d="M103.166 69.1916C103.539 69.3853 103.533 70.1334 103.152 70.8626C102.771 71.5915 102.159 72.0256 101.785 71.8319C101.412 71.6381 101.417 70.8899 101.799 70.1608C102.179 69.4319 102.791 68.9978 103.166 69.1916Z" fill="url(#paint88_radial_40_2839)"/>
<path d="M95.5171 67.1949C94.8459 67.4408 94.1014 67.0984 93.8545 66.43C93.6075 65.7617 93.9514 65.0206 94.6227 64.7747C95.294 64.5287 96.0383 64.8712 96.2853 65.5395C96.5324 66.2079 96.1884 66.9491 95.5171 67.1949Z" fill="url(#paint89_radial_40_2839)"/>
<path d="M99.7448 69.8738C99.1253 70.1007 98.438 69.7846 98.2101 69.1677C97.9821 68.5509 98.2997 67.8666 98.9192 67.6397C99.5388 67.4126 100.226 67.7288 100.454 68.3457C100.682 68.9626 100.365 69.6467 99.7448 69.8738Z" fill="url(#paint90_radial_40_2839)"/>
<path d="M97.5195 73.3312C97.1065 73.4825 96.6483 73.2718 96.4963 72.8605C96.3444 72.4492 96.5561 71.9931 96.9692 71.8419C97.3821 71.6905 97.8404 71.9012 97.9923 72.3125C98.1443 72.7238 97.9326 73.1799 97.5195 73.3312V73.3312Z" fill="url(#paint91_radial_40_2839)"/>
<path d="M93.5004 71.7914C93.1131 71.9333 92.6836 71.7358 92.5411 71.3501C92.3986 70.9645 92.597 70.5371 92.9843 70.3952C93.3716 70.2533 93.8011 70.4507 93.9436 70.8365C94.0862 71.2221 93.8877 71.6495 93.5004 71.7914Z" fill="url(#paint92_radial_40_2839)"/>
<path d="M91.4624 68.5746C90.8944 68.7827 90.2644 68.493 90.0554 67.9275C89.8465 67.362 90.1375 66.7349 90.7055 66.5268C91.2735 66.3187 91.9034 66.6086 92.1124 67.1739C92.3214 67.7394 92.0304 68.3665 91.4624 68.5746Z" fill="url(#paint93_radial_40_2839)"/>
<path d="M91.817 73.4122C91.404 73.5635 90.9458 73.3527 90.7939 72.9416C90.6419 72.5303 90.8536 72.0742 91.2667 71.9228C91.6797 71.7715 92.1379 71.9821 92.2898 72.3934C92.4418 72.8047 92.2301 73.2608 91.817 73.4122Z" fill="url(#paint94_radial_40_2839)"/>
<path d="M98.1601 65.0113C97.9277 65.0965 97.6701 64.9777 97.5846 64.7465C97.4991 64.5152 97.6181 64.2586 97.8505 64.1734C98.0829 64.0884 98.3405 64.207 98.4261 64.4382C98.5115 64.6695 98.3925 64.9261 98.1601 65.0113Z" fill="url(#paint95_radial_40_2839)"/>
<path d="M93.3776 65.2836C93.0162 65.416 92.6154 65.2318 92.4824 64.8718C92.3493 64.5118 92.5346 64.1129 92.8961 63.9805C93.2574 63.8479 93.6583 64.0323 93.7913 64.3922C93.9244 64.7523 93.7391 65.1512 93.3776 65.2836Z" fill="url(#paint96_radial_40_2839)"/>
<path d="M95.8479 70.2444C95.4864 70.3769 95.0857 70.1926 94.9527 69.8327C94.8196 69.4726 95.0049 69.0736 95.3663 68.9412C95.7278 68.8088 96.1285 68.993 96.2616 69.3531C96.3946 69.713 96.2095 70.112 95.8479 70.2444Z" fill="url(#paint97_radial_40_2839)"/>
<path d="M100.629 72.9847C100.087 73.1833 99.4857 72.9067 99.2863 72.367C99.0868 71.8272 99.3645 71.2284 99.9067 71.0299C100.449 70.8313 101.05 71.1079 101.25 71.6476C101.449 72.1874 101.171 72.7862 100.629 72.9847Z" fill="url(#paint98_radial_40_2839)"/>
<path d="M96.9225 77.4605C96.6901 77.5457 96.4325 77.4269 96.3469 77.1957C96.2615 76.9644 96.3805 76.7078 96.6129 76.6228C96.8453 76.5376 97.1029 76.6562 97.1885 76.8874C97.2739 77.1188 97.1549 77.3754 96.9225 77.4605V77.4605Z" fill="url(#paint99_radial_40_2839)"/>
<path d="M86.4934 67.9113C86.2094 68.0153 85.8944 67.8705 85.7899 67.5877C85.6854 67.305 85.8309 66.9914 86.1148 66.8873C86.3988 66.7833 86.7138 66.9283 86.8183 67.211C86.9228 67.4936 86.7772 67.8073 86.4934 67.9113Z" fill="url(#paint100_radial_40_2839)"/>
<path d="M92.373 61.8469C92.089 61.9509 91.774 61.8061 91.6695 61.5233C91.565 61.2406 91.7105 60.9269 91.9945 60.8229C92.2784 60.7188 92.5934 60.8639 92.6979 61.1465C92.8025 61.4292 92.6568 61.7428 92.373 61.8469Z" fill="url(#paint101_radial_40_2839)"/>
<path d="M109.184 69.0024C108.664 69.0537 108.183 68.4925 108.108 67.7488C108.034 67.0047 108.395 66.3603 108.915 66.3088C109.435 66.2573 109.916 66.8185 109.99 67.5625C110.065 68.3063 109.703 68.951 109.184 69.0024Z" fill="url(#paint102_radial_40_2839)"/>
<path d="M107.344 76.2661C106.853 76.0875 106.664 75.3742 106.921 74.6719C107.179 73.9694 107.785 73.545 108.276 73.723C108.767 73.9014 108.956 74.615 108.699 75.3172C108.441 76.0196 107.835 76.4441 107.344 76.2661Z" fill="url(#paint103_radial_40_2839)"/>
<path d="M102.13 81.2611C101.867 80.8114 102.179 80.1425 102.828 79.7658C103.477 79.3889 104.216 79.4484 104.479 79.8973C104.742 80.3464 104.429 81.0158 103.781 81.3925C103.132 81.7693 102.393 81.7101 102.13 81.2611V81.2611Z" fill="url(#paint104_radial_40_2839)"/>
<path d="M94.9089 83.0747C94.903 82.5542 95.506 82.1259 96.257 82.1168C97.0079 82.108 97.6211 82.5224 97.6276 83.0424C97.6336 83.562 97.03 83.9908 96.2795 83.9999C95.5286 84.0091 94.915 83.5944 94.9089 83.0747Z" fill="url(#paint105_radial_40_2839)"/>
<path d="M87.724 81.3153C87.9507 80.8463 88.6823 80.729 89.3589 81.0533C90.0359 81.3772 90.3999 82.0199 90.1741 82.4887C89.9476 82.957 89.2157 83.0743 88.5391 82.7503C87.8622 82.4263 87.4977 81.7837 87.724 81.3153Z" fill="#FF834E"/>
<path d="M82.7561 76.0221C83.2011 75.749 83.8808 76.0435 84.2745 76.68C84.6685 77.3163 84.6266 78.0536 84.1821 78.3265C83.7378 78.599 83.0579 78.3042 82.6639 77.6678C82.2701 77.0314 82.3114 76.2946 82.7561 76.0221V76.0221Z" fill="#FF834E"/>
<path d="M80.7699 68.886C81.2882 68.8149 81.7903 69.3573 81.8923 70.0982C81.995 70.8385 81.6578 71.4962 81.1405 71.5673C80.6235 71.6382 80.1209 71.095 80.0182 70.3545C79.9161 69.614 80.2529 68.9565 80.7699 68.886V68.886Z" fill="#FF834E"/>
<path d="M82.3457 61.8616C82.8568 61.9721 83.1412 62.6531 82.9814 63.3841C82.8222 64.1142 82.2783 64.6166 81.7679 64.5062C81.2581 64.3959 80.9739 63.7139 81.1328 62.9835C81.2926 62.2529 81.8359 61.7507 82.3457 61.8616V61.8616Z" fill="url(#paint106_radial_40_2839)"/>
<path d="M87.6243 56.5461C87.9686 56.9379 87.7897 57.6534 87.2244 58.1462C86.66 58.6385 85.9224 58.7194 85.5786 58.3285C85.2347 57.9374 85.4143 57.2209 85.9789 56.7285C86.544 56.2363 87.2809 56.1547 87.6243 56.5461V56.5461Z" fill="url(#paint107_radial_40_2839)"/>
<path d="M94.983 54.8044C95.0383 55.3218 94.4785 55.8048 93.7314 55.8841C92.9855 55.9635 92.3355 55.6073 92.2796 55.0906C92.2248 54.5736 92.7856 54.0905 93.5319 54.011C94.2783 53.9321 94.9281 54.2873 94.983 54.8044Z" fill="url(#paint108_radial_40_2839)"/>
<path d="M102.297 56.7196C102.087 57.1963 101.36 57.3388 100.672 57.0379C99.985 56.7384 99.5983 56.1079 99.8079 55.6315C100.018 55.1556 100.746 55.0137 101.433 55.3137C102.121 55.6143 102.507 56.2437 102.297 56.7196V56.7196Z" fill="url(#paint109_radial_40_2839)"/>
<path d="M107.543 61.8221C107.122 62.1304 106.421 61.8924 105.976 61.29C105.53 60.6886 105.512 59.9502 105.932 59.6416C106.353 59.3339 107.055 59.573 107.5 60.1743C107.944 60.7763 107.964 61.5141 107.543 61.8221Z" fill="url(#paint110_radial_40_2839)"/>
<path d="M107.004 65.6174C106.675 65.754 106.249 65.4833 106.052 65.0123C105.854 64.542 105.962 64.0493 106.291 63.9126C106.62 63.7767 107.046 64.048 107.243 64.5184C107.44 64.989 107.333 65.481 107.004 65.6174Z" fill="url(#paint111_radial_40_2839)"/>
<path d="M106.981 72.0172C106.626 71.9798 106.383 71.5391 106.436 71.0316C106.49 70.5245 106.821 70.1436 107.176 70.1803C107.529 70.2183 107.773 70.6595 107.72 71.1665C107.666 71.6734 107.335 72.0543 106.981 72.0172V72.0172Z" fill="url(#paint112_radial_40_2839)"/>
<path d="M103.714 77.5547C103.425 77.3463 103.434 76.8433 103.734 76.4299C104.034 76.0163 104.512 75.8503 104.801 76.0581C105.089 76.2662 105.08 76.7701 104.78 77.1832C104.48 77.5961 104.002 77.7625 103.714 77.5547V77.5547Z" fill="url(#paint113_radial_40_2839)"/>
<path d="M98.3808 80.8893C98.2642 80.5537 98.5613 80.1468 99.0457 79.9798C99.5291 79.8121 100.016 79.9491 100.133 80.2844C100.25 80.6195 99.9516 81.0268 99.4681 81.1942C98.9842 81.3607 98.4975 81.2246 98.3808 80.8893Z" fill="url(#paint114_radial_40_2839)"/>
<path d="M92.1124 80.8022C92.1997 80.4579 92.6725 80.2799 93.1695 80.4046C93.6659 80.5288 93.9981 80.9095 93.9108 81.2537C93.8232 81.5973 93.3497 81.7751 92.8533 81.6507C92.357 81.5256 92.0252 81.1461 92.1124 80.8022V80.8022Z" fill="url(#paint115_radial_40_2839)"/>
<path d="M86.4024 77.7548C86.6137 77.4688 87.1187 77.4812 87.5321 77.7831C87.9449 78.0841 88.1085 78.5612 87.8977 78.8475C87.6864 79.1327 87.1808 79.1201 86.768 78.819C86.3553 78.5168 86.1916 78.0409 86.4024 77.7548Z" fill="url(#paint116_radial_40_2839)"/>
<path d="M82.9847 72.4933C83.2985 72.3241 83.7499 72.5499 83.9944 72.9988C84.2386 73.4468 84.1818 73.9473 83.8684 74.1168C83.555 74.2851 83.1033 74.0583 82.859 73.6106C82.6156 73.1624 82.6716 72.6621 82.9847 72.4933V72.4933Z" fill="url(#paint117_radial_40_2839)"/>
<path d="M83.0036 66.1955C83.3574 66.2423 83.5896 66.6892 83.5224 67.1953C83.4558 67.7005 83.1147 68.0723 82.7611 68.026C82.4082 67.9793 82.1762 67.5316 82.2429 67.0264C82.3102 66.5212 82.6506 66.1492 83.0036 66.1955Z" fill="url(#paint118_radial_40_2839)"/>
<path d="M86.0139 60.4407C86.3325 60.6014 86.403 61.0997 86.1714 61.5552C85.9404 62.0101 85.4951 62.2488 85.1767 62.0883C84.8593 61.928 84.7891 61.429 85.0199 60.9743C85.2515 60.5198 85.6962 60.2805 86.0139 60.4407Z" fill="url(#paint119_radial_40_2839)"/>
<path d="M91.6009 57.1092C91.731 57.4403 91.4503 57.8587 90.9728 58.045C90.4962 58.2313 90.0044 58.114 89.8743 57.7832C89.7447 57.4532 90.0262 57.0344 90.5023 56.8483C90.9794 56.6627 91.4712 56.7792 91.6009 57.1092V57.1092Z" fill="url(#paint120_radial_40_2839)"/>
<path d="M97.9687 57.0336C97.9705 57.3889 97.5571 57.6787 97.0444 57.6815C96.5325 57.6845 96.1161 57.399 96.1143 57.0436C96.1126 56.6893 96.5265 56.3994 97.0382 56.3961C97.5503 56.3944 97.9669 56.6789 97.9687 57.0336Z" fill="url(#paint121_radial_40_2839)"/>
<path d="M103.64 60.1836C103.434 60.4745 102.929 60.472 102.509 60.1784C102.091 59.8857 101.917 59.4127 102.123 59.1218C102.327 58.8321 102.834 58.8349 103.253 59.1274C103.671 59.4213 103.845 59.8935 103.64 60.1836Z" fill="url(#paint122_radial_40_2839)"/>
</g>
<defs>
<radialGradient id="paint0_radial_40_2839" cx="0" cy="0" r="1" gradientUnits="userSpaceOnUse" gradientTransform="translate(21.693 82.8959) rotate(90) scale(5.39853 2.90735)">
<stop stop-color="#FF834E"/>
<stop offset="0.958333" stop-color="#EF412B"/>
</radialGradient>
<radialGradient id="paint1_radial_40_2839" cx="0" cy="0" r="1" gradientUnits="userSpaceOnUse" gradientTransform="translate(51.0417 67.6348) rotate(90) scale(4.51637 2.43237)">
<stop stop-color="#FF834E"/>
<stop offset="0.958333" stop-color="#EF412B"/>
</radialGradient>
<radialGradient id="paint2_radial_40_2839" cx="0" cy="0" r="1" gradientUnits="userSpaceOnUse" gradientTransform="translate(24.8173 66.5322) rotate(90) scale(5.00393 3.54967)">
<stop stop-color="#FF834E"/>
<stop offset="0.958333" stop-color="#EF412B"/>
</radialGradient>
<radialGradient id="paint3_radial_40_2839" cx="0" cy="0" r="1" gradientUnits="userSpaceOnUse" gradientTransform="translate(34.1636 91.0157) rotate(90) scale(2.50047 4.83749)">
<stop stop-color="#FF834E"/>
<stop offset="0.958333" stop-color="#EF412B"/>
</radialGradient>
<radialGradient id="paint4_radial_40_2839" cx="0" cy="0" r="1" gradientUnits="userSpaceOnUse" gradientTransform="translate(39.792 59.9807) rotate(90) scale(2.50047 4.83735)">
<stop stop-color="#FF834E"/>
<stop offset="0.958333" stop-color="#EF412B"/>
</radialGradient>
<radialGradient id="paint5_radial_40_2839" cx="0" cy="0" r="1" gradientUnits="userSpaceOnUse" gradientTransform="translate(48.1258 88.5446) rotate(90) scale(2.17788 2.83513)">
<stop stop-color="#FF834E"/>
<stop offset="0.958333" stop-color="#EF412B"/>
</radialGradient>
<radialGradient id="paint6_radial_40_2839" cx="0" cy="0" r="1" gradientUnits="userSpaceOnUse" gradientTransform="translate(52.9475 79.2251) rotate(90) scale(2.91479 2.06204)">
<stop stop-color="#FF834E"/>
<stop offset="0.958333" stop-color="#EF412B"/>
</radialGradient>
<radialGradient id="paint7_radial_40_2839" cx="0" cy="0" r="1" gradientUnits="userSpaceOnUse" gradientTransform="translate(37.1492 69.5675) rotate(90) scale(2.75154 2.76365)">
<stop stop-color="#FF834E"/>
<stop offset="0.958333" stop-color="#EF412B"/>
</radialGradient>
<radialGradient id="paint8_radial_40_2839" cx="0" cy="0" r="1" gradientUnits="userSpaceOnUse" gradientTransform="translate(46.2417 75.481) rotate(90) scale(2.5399 2.55102)">
<stop stop-color="#FF834E"/>
<stop offset="0.958333" stop-color="#EF412B"/>
</radialGradient>
<radialGradient id="paint9_radial_40_2839" cx="0" cy="0" r="1" gradientUnits="userSpaceOnUse" gradientTransform="translate(41.7879 83.6512) rotate(90) scale(1.69322 1.70075)">
<stop stop-color="#FF834E"/>
<stop offset="0.958333" stop-color="#EF412B"/>
</radialGradient>
<radialGradient id="paint10_radial_40_2839" cx="0" cy="0" r="1" gradientUnits="userSpaceOnUse" gradientTransform="translate(33.2504 80.4657) rotate(90) scale(1.5874 1.59453)">
<stop stop-color="#FF834E"/>
<stop offset="0.958333" stop-color="#EF412B"/>
</radialGradient>
<radialGradient id="paint11_radial_40_2839" cx="0" cy="0" r="1" gradientUnits="userSpaceOnUse" gradientTransform="translate(28.6457 72.9082) rotate(90) scale(2.32814 2.33848)">
<stop stop-color="#FF834E"/>
<stop offset="0.958333" stop-color="#EF412B"/>
</radialGradient>
<radialGradient id="paint12_radial_40_2839" cx="0" cy="0" r="1" gradientUnits="userSpaceOnUse" gradientTransform="translate(29.6226 83.8239) rotate(90) scale(1.69323 1.70068)">
<stop stop-color="#FF834E"/>
<stop offset="0.958333" stop-color="#EF412B"/>
</radialGradient>
<radialGradient id="paint13_radial_40_2839" cx="0" cy="0" r="1" gradientUnits="userSpaceOnUse" gradientTransform="translate(43.4114 66.5971) rotate(90) scale(0.952506 0.956672)">
<stop stop-color="#FF834E"/>
<stop offset="0.958333" stop-color="#EF412B"/>
</radialGradient>
<radialGradient id="paint14_radial_40_2839" cx="0" cy="0" r="1" gradientUnits="userSpaceOnUse" gradientTransform="translate(33.0252 66.6816) rotate(90) scale(1.48164 1.48819)">
<stop stop-color="#FF834E"/>
<stop offset="0.958333" stop-color="#EF412B"/>
</radialGradient>
<radialGradient id="paint15_radial_40_2839" cx="0" cy="0" r="1" gradientUnits="userSpaceOnUse" gradientTransform="translate(38.2953 77.2647) rotate(90) scale(1.48164 1.48813)">
<stop stop-color="#FF834E"/>
<stop offset="0.958333" stop-color="#EF412B"/>
</radialGradient>
<radialGradient id="paint16_radial_40_2839" cx="0" cy="0" r="1" gradientUnits="userSpaceOnUse" gradientTransform="translate(48.2384 82.4156) rotate(90) scale(2.22244 2.23224)">
<stop stop-color="#FF834E"/>
<stop offset="0.958333" stop-color="#EF412B"/>
</radialGradient>
<radialGradient id="paint17_radial_40_2839" cx="0" cy="0" r="1" gradientUnits="userSpaceOnUse" gradientTransform="translate(40.771 93.1554) rotate(90) scale(0.952432 0.956672)">
<stop stop-color="#FF834E"/>
<stop offset="0.958333" stop-color="#EF412B"/>
</radialGradient>
<radialGradient id="paint18_radial_40_2839" cx="0" cy="0" r="1" gradientUnits="userSpaceOnUse" gradientTransform="translate(18.4487 72.5852) rotate(90) scale(1.16414 1.16926)">
<stop stop-color="#FF834E"/>
<stop offset="0.958333" stop-color="#EF412B"/>
</radialGradient>
<radialGradient id="paint19_radial_40_2839" cx="0" cy="0" r="1" gradientUnits="userSpaceOnUse" gradientTransform="translate(30.9919 59.6478) rotate(90) scale(1.16414 1.16926)">
<stop stop-color="#FF834E"/>
<stop offset="0.958333" stop-color="#EF412B"/>
</radialGradient>
<radialGradient id="paint20_radial_40_2839" cx="0" cy="0" r="1" gradientUnits="userSpaceOnUse" gradientTransform="translate(66.9718 73.1319) rotate(90) scale(2.88014 2.02821)">
<stop stop-color="#FF834E"/>
<stop offset="0.958333" stop-color="#EF412B"/>
</radialGradient>
<radialGradient id="paint21_radial_40_2839" cx="0" cy="0" r="1" gradientUnits="userSpaceOnUse" gradientTransform="translate(64.3279 88.7884) rotate(90) scale(2.79913 2.14068)">
<stop stop-color="#FF834E"/>
<stop offset="0.958333" stop-color="#EF412B"/>
</radialGradient>
<radialGradient id="paint22_radial_40_2839" cx="0" cy="0" r="1" gradientUnits="userSpaceOnUse" gradientTransform="translate(54.7164 100.702) rotate(90) scale(2.26438 2.70434)">
<stop stop-color="#FF834E"/>
<stop offset="0.958333" stop-color="#EF412B"/>
</radialGradient>
<radialGradient id="paint23_radial_40_2839" cx="0" cy="0" r="1" gradientUnits="userSpaceOnUse" gradientTransform="translate(39.7056 105.991) rotate(90) scale(2.00889 2.90006)">
<stop stop-color="#FF834E"/>
<stop offset="0.958333" stop-color="#EF412B"/>
</radialGradient>
<radialGradient id="paint24_radial_40_2839" cx="0" cy="0" r="1" gradientUnits="userSpaceOnUse" gradientTransform="translate(9.38892 63.5921) rotate(90) scale(2.85351 2.06627)">
<stop stop-color="#FF834E"/>
<stop offset="0.958333" stop-color="#EF412B"/>
</radialGradient>
<radialGradient id="paint25_radial_40_2839" cx="0" cy="0" r="1" gradientUnits="userSpaceOnUse" gradientTransform="translate(19.0836 51.3328) rotate(90) scale(2.42917 2.55524)">
<stop stop-color="#FF834E"/>
<stop offset="0.958333" stop-color="#EF412B"/>
</radialGradient>
<radialGradient id="paint26_radial_40_2839" cx="0" cy="0" r="1" gradientUnits="userSpaceOnUse" gradientTransform="translate(34.0802 46.0215) rotate(90) scale(2.02147 2.89156)">
<stop stop-color="#FF834E"/>
<stop offset="0.958333" stop-color="#EF412B"/>
</radialGradient>
<radialGradient id="paint27_radial_40_2839" cx="0" cy="0" r="1" gradientUnits="userSpaceOnUse" gradientTransform="translate(49.9123 48.6422) rotate(90) scale(2.17509 2.77702)">
<stop stop-color="#FF834E"/>
<stop offset="0.958333" stop-color="#EF412B"/>
</radialGradient>
<radialGradient id="paint28_radial_40_2839" cx="0" cy="0" r="1" gradientUnits="userSpaceOnUse" gradientTransform="translate(62.04 58.3619) rotate(90) scale(2.61299 2.36536)">
<stop stop-color="#FF834E"/>
<stop offset="0.958333" stop-color="#EF412B"/>
</radialGradient>
<radialGradient id="paint29_radial_40_2839" cx="0" cy="0" r="1" gradientUnits="userSpaceOnUse" gradientTransform="translate(61.8477 66.9657) rotate(90) scale(1.8936 1.48163)">
<stop stop-color="#FF834E"/>
<stop offset="0.958333" stop-color="#EF412B"/>
</radialGradient>
<radialGradient id="paint30_radial_40_2839" cx="0" cy="0" r="1" gradientUnits="userSpaceOnUse" gradientTransform="translate(62.7664 80.4773) rotate(90) scale(1.96462 1.38474)">
<stop stop-color="#FF834E"/>
<stop offset="0.958333" stop-color="#EF412B"/>
</radialGradient>
<radialGradient id="paint31_radial_40_2839" cx="0" cy="0" r="1" gradientUnits="userSpaceOnUse" gradientTransform="translate(56.7478 92.6536) rotate(90) scale(1.78733 1.60871)">
<stop stop-color="#FF834E"/>
<stop offset="0.958333" stop-color="#EF412B"/>
</radialGradient>
<radialGradient id="paint32_radial_40_2839" cx="0" cy="0" r="1" gradientUnits="userSpaceOnUse" gradientTransform="translate(46.0815 100.718) rotate(90) scale(1.44756 1.92321)">
<stop stop-color="#FF834E"/>
<stop offset="0.958333" stop-color="#EF412B"/>
</radialGradient>
<radialGradient id="paint33_radial_40_2839" cx="0" cy="0" r="1" gradientUnits="userSpaceOnUse" gradientTransform="translate(32.7581 101.659) rotate(90) scale(1.41402 1.94804)">
<stop stop-color="#FF834E"/>
<stop offset="0.958333" stop-color="#EF412B"/>
</radialGradient>
<radialGradient id="paint34_radial_40_2839" cx="0" cy="0" r="1" gradientUnits="userSpaceOnUse" gradientTransform="translate(20.2534 95.8417) rotate(90) scale(1.60553 1.79124)">
<stop stop-color="#FF834E"/>
<stop offset="0.958333" stop-color="#EF412B"/>
</radialGradient>
<radialGradient id="paint35_radial_40_2839" cx="0" cy="0" r="1" gradientUnits="userSpaceOnUse" gradientTransform="translate(12.3106 85.1834) rotate(90) scale(1.85092 1.53435)">
<stop stop-color="#FF834E"/>
<stop offset="0.958333" stop-color="#EF412B"/>
</radialGradient>
<radialGradient id="paint36_radial_40_2839" cx="0" cy="0" r="1" gradientUnits="userSpaceOnUse" gradientTransform="translate(11.1498 71.9697) rotate(90) scale(1.96086 1.38936)">
<stop stop-color="#FF834E"/>
<stop offset="0.958333" stop-color="#EF412B"/>
</radialGradient>
<radialGradient id="paint37_radial_40_2839" cx="0" cy="0" r="1" gradientUnits="userSpaceOnUse" gradientTransform="translate(16.9379 59.4979) rotate(90) scale(1.86388 1.51872)">
<stop stop-color="#FF834E"/>
<stop offset="0.958333" stop-color="#EF412B"/>
</radialGradient>
<radialGradient id="paint38_radial_40_2839" cx="0" cy="0" r="1" gradientUnits="userSpaceOnUse" gradientTransform="translate(27.9072 51.3531) rotate(90) scale(1.46507 1.9093)">
<stop stop-color="#FF834E"/>
<stop offset="0.958333" stop-color="#EF412B"/>
</radialGradient>
<radialGradient id="paint39_radial_40_2839" cx="0" cy="0" r="1" gradientUnits="userSpaceOnUse" gradientTransform="translate(41.3553 50.4828) rotate(90) scale(1.37107 1.97801)">
<stop stop-color="#FF834E"/>
<stop offset="0.958333" stop-color="#EF412B"/>
</radialGradient>
<radialGradient id="paint40_radial_40_2839" cx="0" cy="0" r="1" gradientUnits="userSpaceOnUse" gradientTransform="translate(53.813 56.0603) rotate(90) scale(1.59356 1.80209)">
<stop stop-color="#FF834E"/>
<stop offset="0.958333" stop-color="#EF412B"/>
</radialGradient>
<radialGradient id="paint41_radial_40_2839" cx="0" cy="0" r="1" gradientUnits="userSpaceOnUse" gradientTransform="translate(59.2589 31.5642) rotate(90) scale(3.96455 2.13509)">
<stop stop-color="#FF834E"/>
<stop offset="0.958333" stop-color="#EF412B"/>
</radialGradient>
<radialGradient id="paint42_radial_40_2839" cx="0" cy="0" r="1" gradientUnits="userSpaceOnUse" gradientTransform="translate(80.8119 20.3568) rotate(90) scale(3.31671 1.78627)">
<stop stop-color="#FF834E"/>
<stop offset="0.958333" stop-color="#EF412B"/>
</radialGradient>
<radialGradient id="paint43_radial_40_2839" cx="0" cy="0" r="1" gradientUnits="userSpaceOnUse" gradientTransform="translate(61.5533 19.5471) rotate(90) scale(3.67476 2.60679)">
<stop stop-color="#FF834E"/>
<stop offset="0.958333" stop-color="#EF412B"/>
</radialGradient>
<radialGradient id="paint44_radial_40_2839" cx="0" cy="0" r="1" gradientUnits="userSpaceOnUse" gradientTransform="translate(68.4171 37.5271) rotate(90) scale(1.83628 3.55253)">
<stop stop-color="#FF834E"/>
<stop offset="0.958333" stop-color="#EF412B"/>
</radialGradient>
<radialGradient id="paint45_radial_40_2839" cx="0" cy="0" r="1" gradientUnits="userSpaceOnUse" gradientTransform="translate(72.5504 14.7358) rotate(90) scale(1.83628 3.55243)">
<stop stop-color="#FF834E"/>
<stop offset="0.958333" stop-color="#EF412B"/>
</radialGradient>
<radialGradient id="paint46_radial_40_2839" cx="0" cy="0" r="1" gradientUnits="userSpaceOnUse" gradientTransform="translate(78.6705 35.7124) rotate(90) scale(1.59938 2.08205)">
<stop stop-color="#FF834E"/>
<stop offset="0.958333" stop-color="#EF412B"/>
</radialGradient>
<radialGradient id="paint47_radial_40_2839" cx="0" cy="0" r="1" gradientUnits="userSpaceOnUse" gradientTransform="translate(82.2114 28.8684) rotate(90) scale(2.14055 1.51431)">
<stop stop-color="#FF834E"/>
<stop offset="0.958333" stop-color="#EF412B"/>
</radialGradient>
<radialGradient id="paint48_radial_40_2839" cx="0" cy="0" r="1" gradientUnits="userSpaceOnUse" gradientTransform="translate(70.6095 21.7761) rotate(90) scale(2.02066 2.02956)">
<stop stop-color="#FF834E"/>
<stop offset="0.958333" stop-color="#EF412B"/>
</radialGradient>
<radialGradient id="paint49_radial_40_2839" cx="0" cy="0" r="1" gradientUnits="userSpaceOnUse" gradientTransform="translate(77.2869 26.1188) rotate(90) scale(1.86524 1.87341)">
<stop stop-color="#FF834E"/>
<stop offset="0.958333" stop-color="#EF412B"/>
</radialGradient>
<radialGradient id="paint50_radial_40_2839" cx="0" cy="0" r="1" gradientUnits="userSpaceOnUse" gradientTransform="translate(74.0161 32.1189) rotate(90) scale(1.24346 1.24899)">
<stop stop-color="#FF834E"/>
<stop offset="0.958333" stop-color="#EF412B"/>
</radialGradient>
<radialGradient id="paint51_radial_40_2839" cx="0" cy="0" r="1" gradientUnits="userSpaceOnUse" gradientTransform="translate(67.7464 29.7795) rotate(90) scale(1.16575 1.17098)">
<stop stop-color="#FF834E"/>
<stop offset="0.958333" stop-color="#EF412B"/>
</radialGradient>
<radialGradient id="paint52_radial_40_2839" cx="0" cy="0" r="1" gradientUnits="userSpaceOnUse" gradientTransform="translate(64.3648 24.2295) rotate(90) scale(1.70972 1.71732)">
<stop stop-color="#FF834E"/>
<stop offset="0.958333" stop-color="#EF412B"/>
</radialGradient>
<radialGradient id="paint53_radial_40_2839" cx="0" cy="0" r="1" gradientUnits="userSpaceOnUse" gradientTransform="translate(65.0822 32.2457) rotate(90) scale(1.24347 1.24893)">
<stop stop-color="#FF834E"/>
<stop offset="0.958333" stop-color="#EF412B"/>
</radialGradient>
<radialGradient id="paint54_radial_40_2839" cx="0" cy="0" r="1" gradientUnits="userSpaceOnUse" gradientTransform="translate(75.2083 19.5947) rotate(90) scale(0.699497 0.702556)">
<stop stop-color="#FF834E"/>
<stop offset="0.958333" stop-color="#EF412B"/>
</radialGradient>
<radialGradient id="paint55_radial_40_2839" cx="0" cy="0" r="1" gradientUnits="userSpaceOnUse" gradientTransform="translate(67.581 19.6568) rotate(90) scale(1.08808 1.09289)">
<stop stop-color="#FF834E"/>
<stop offset="0.958333" stop-color="#EF412B"/>
</radialGradient>
<radialGradient id="paint56_radial_40_2839" cx="0" cy="0" r="1" gradientUnits="userSpaceOnUse" gradientTransform="translate(71.4512 27.4288) rotate(90) scale(1.08808 1.09285)">
<stop stop-color="#FF834E"/>
<stop offset="0.958333" stop-color="#EF412B"/>
</radialGradient>
<radialGradient id="paint57_radial_40_2839" cx="0" cy="0" r="1" gradientUnits="userSpaceOnUse" gradientTransform="translate(78.7532 31.2114) rotate(90) scale(1.6321 1.6393)">
<stop stop-color="#FF834E"/>
<stop offset="0.958333" stop-color="#EF412B"/>
</radialGradient>
<radialGradient id="paint58_radial_40_2839" cx="0" cy="0" r="1" gradientUnits="userSpaceOnUse" gradientTransform="translate(73.2694 39.0985) rotate(90) scale(0.699442 0.702556)">
<stop stop-color="#FF834E"/>
<stop offset="0.958333" stop-color="#EF412B"/>
</radialGradient>
<radialGradient id="paint59_radial_40_2839" cx="0" cy="0" r="1" gradientUnits="userSpaceOnUse" gradientTransform="translate(56.8764 23.9923) rotate(90) scale(0.854912 0.858679)">
<stop stop-color="#FF834E"/>
<stop offset="0.958333" stop-color="#EF412B"/>
</radialGradient>
<radialGradient id="paint60_radial_40_2839" cx="0" cy="0" r="1" gradientUnits="userSpaceOnUse" gradientTransform="translate(66.0878 14.4913) rotate(90) scale(0.854914 0.858678)">
<stop stop-color="#FF834E"/>
<stop offset="0.958333" stop-color="#EF412B"/>
</radialGradient>
<radialGradient id="paint61_radial_40_2839" cx="0" cy="0" r="1" gradientUnits="userSpaceOnUse" gradientTransform="translate(92.5105 24.3937) rotate(90) scale(2.1151 1.48946)">
<stop stop-color="#FF834E"/>
<stop offset="0.958333" stop-color="#EF412B"/>
</radialGradient>
<radialGradient id="paint62_radial_40_2839" cx="0" cy="0" r="1" gradientUnits="userSpaceOnUse" gradientTransform="translate(90.5689 35.8915) rotate(90) scale(2.05561 1.57206)">
<stop stop-color="#FF834E"/>
<stop offset="0.958333" stop-color="#EF412B"/>
</radialGradient>
<radialGradient id="paint63_radial_40_2839" cx="0" cy="0" r="1" gradientUnits="userSpaceOnUse" gradientTransform="translate(83.5105 44.6407) rotate(90) scale(1.66291 1.986)">
<stop stop-color="#FF834E"/>
<stop offset="0.958333" stop-color="#EF412B"/>
</radialGradient>
<radialGradient id="paint64_radial_40_2839" cx="0" cy="0" r="1" gradientUnits="userSpaceOnUse" gradientTransform="translate(72.487 48.5247) rotate(90) scale(1.47528 2.12973)">
<stop stop-color="#FF834E"/>
<stop offset="0.958333" stop-color="#EF412B"/>
</radialGradient>
<radialGradient id="paint65_radial_40_2839" cx="0" cy="0" r="1" gradientUnits="userSpaceOnUse" gradientTransform="translate(50.2231 17.388) rotate(90) scale(2.09555 1.51742)">
<stop stop-color="#FF834E"/>
<stop offset="0.958333" stop-color="#EF412B"/>
</radialGradient>
<radialGradient id="paint66_radial_40_2839" cx="0" cy="0" r="1" gradientUnits="userSpaceOnUse" gradientTransform="translate(57.3426 8.38499) rotate(90) scale(1.78392 1.8765)">
<stop stop-color="#FF834E"/>
<stop offset="0.958333" stop-color="#EF412B"/>
</radialGradient>
<radialGradient id="paint67_radial_40_2839" cx="0" cy="0" r="1" gradientUnits="userSpaceOnUse" gradientTransform="translate(68.3558 4.48455) rotate(90) scale(1.48452 2.12349)">
<stop stop-color="#FF834E"/>
<stop offset="0.958333" stop-color="#EF412B"/>
</radialGradient>
<radialGradient id="paint68_radial_40_2839" cx="0" cy="0" r="1" gradientUnits="userSpaceOnUse" gradientTransform="translate(79.9825 6.40913) rotate(90) scale(1.59733 2.03937)">
<stop stop-color="#FF834E"/>
<stop offset="0.958333" stop-color="#EF412B"/>
</radialGradient>
<radialGradient id="paint69_radial_40_2839" cx="0" cy="0" r="1" gradientUnits="userSpaceOnUse" gradientTransform="translate(88.8888 13.547) rotate(90) scale(1.91891 1.73706)">
<stop stop-color="#FF834E"/>
<stop offset="0.958333" stop-color="#EF412B"/>
</radialGradient>
<radialGradient id="paint70_radial_40_2839" cx="0" cy="0" r="1" gradientUnits="userSpaceOnUse" gradientTransform="translate(88.7475 19.8654) rotate(90) scale(1.39061 1.08807)">
<stop stop-color="#FF834E"/>
<stop offset="0.958333" stop-color="#EF412B"/>
</radialGradient>
<radialGradient id="paint71_radial_40_2839" cx="0" cy="0" r="1" gradientUnits="userSpaceOnUse" gradientTransform="translate(89.4222 29.788) rotate(90) scale(1.44277 1.01692)">
<stop stop-color="#FF834E"/>
<stop offset="0.958333" stop-color="#EF412B"/>
</radialGradient>
<radialGradient id="paint72_radial_40_2839" cx="0" cy="0" r="1" gradientUnits="userSpaceOnUse" gradientTransform="translate(85.0023 38.73) rotate(90) scale(1.31257 1.1814)">
<stop stop-color="#FF834E"/>
<stop offset="0.958333" stop-color="#EF412B"/>
</radialGradient>
<radialGradient id="paint73_radial_40_2839" cx="0" cy="0" r="1" gradientUnits="userSpaceOnUse" gradientTransform="translate(77.1693 44.6525) rotate(90) scale(1.06305 1.41236)">
<stop stop-color="#FF834E"/>
<stop offset="0.958333" stop-color="#EF412B"/>
</radialGradient>
<radialGradient id="paint74_radial_40_2839" cx="0" cy="0" r="1" gradientUnits="userSpaceOnUse" gradientTransform="translate(67.3848 45.3432) rotate(90) scale(1.03842 1.43059)">
<stop stop-color="#FF834E"/>
<stop offset="0.958333" stop-color="#EF412B"/>
</radialGradient>
<radialGradient id="paint75_radial_40_2839" cx="0" cy="0" r="1" gradientUnits="userSpaceOnUse" gradientTransform="translate(58.2018 41.0713) rotate(90) scale(1.17906 1.31544)">
<stop stop-color="#FF834E"/>
<stop offset="0.958333" stop-color="#EF412B"/>
</radialGradient>
<radialGradient id="paint76_radial_40_2839" cx="0" cy="0" r="1" gradientUnits="userSpaceOnUse" gradientTransform="translate(52.3687 33.2441) rotate(90) scale(1.35927 1.12679)">
<stop stop-color="#FF834E"/>
<stop offset="0.958333" stop-color="#EF412B"/>
</radialGradient>
<radialGradient id="paint77_radial_40_2839" cx="0" cy="0" r="1" gradientUnits="userSpaceOnUse" gradientTransform="translate(51.5163 23.5402) rotate(90) scale(1.44 1.02031)">
<stop stop-color="#FF834E"/>
<stop offset="0.958333" stop-color="#EF412B"/>
</radialGradient>
<radialGradient id="paint78_radial_40_2839" cx="0" cy="0" r="1" gradientUnits="userSpaceOnUse" gradientTransform="translate(55.7669 14.3813) rotate(90) scale(1.36878 1.11531)">
<stop stop-color="#FF834E"/>
<stop offset="0.958333" stop-color="#EF412B"/>
</radialGradient>
<radialGradient id="paint79_radial_40_2839" cx="0" cy="0" r="1" gradientUnits="userSpaceOnUse" gradientTransform="translate(63.8224 8.39994) rotate(90) scale(1.07591 1.40214)">
<stop stop-color="#FF834E"/>
<stop offset="0.958333" stop-color="#EF412B"/>
</radialGradient>
<radialGradient id="paint80_radial_40_2839" cx="0" cy="0" r="1" gradientUnits="userSpaceOnUse" gradientTransform="translate(73.6984 7.76083) rotate(90) scale(1.00688 1.4526)">
<stop stop-color="#FF834E"/>
<stop offset="0.958333" stop-color="#EF412B"/>
</radialGradient>
<radialGradient id="paint81_radial_40_2839" cx="0" cy="0" r="1" gradientUnits="userSpaceOnUse" gradientTransform="translate(82.8471 11.8568) rotate(90) scale(1.17027 1.32341)">
<stop stop-color="#FF834E"/>
<stop offset="0.958333" stop-color="#EF412B"/>
</radialGradient>
<radialGradient id="paint82_radial_40_2839" cx="0" cy="0" r="1" gradientUnits="userSpaceOnUse" gradientTransform="translate(87.8248 72.2325) rotate(90) scale(2.53056 1.36282)">
<stop stop-color="#FF834E"/>
<stop offset="0.958333" stop-color="#EF412B"/>
</radialGradient>
<radialGradient id="paint83_radial_40_2839" cx="0" cy="0" r="1" gradientUnits="userSpaceOnUse" gradientTransform="translate(101.582 65.0788) rotate(90) scale(2.11705 1.14017)">
<stop stop-color="#FF834E"/>
<stop offset="0.958333" stop-color="#EF412B"/>
</radialGradient>
<radialGradient id="paint84_radial_40_2839" cx="0" cy="0" r="1" gradientUnits="userSpaceOnUse" gradientTransform="translate(89.2894 64.562) rotate(90) scale(2.34559 1.66391)">
<stop stop-color="#FF834E"/>
<stop offset="0.958333" stop-color="#EF412B"/>
</radialGradient>
<radialGradient id="paint85_radial_40_2839" cx="0" cy="0" r="1" gradientUnits="userSpaceOnUse" gradientTransform="translate(93.6705 76.0386) rotate(90) scale(1.1721 2.26757)">
<stop stop-color="#FF834E"/>
<stop offset="0.958333" stop-color="#EF412B"/>
</radialGradient>
<radialGradient id="paint86_radial_40_2839" cx="0" cy="0" r="1" gradientUnits="userSpaceOnUse" gradientTransform="translate(96.3088 61.491) rotate(90) scale(1.17209 2.26751)">
<stop stop-color="#FF834E"/>
<stop offset="0.958333" stop-color="#EF412B"/>
</radialGradient>
<radialGradient id="paint87_radial_40_2839" cx="0" cy="0" r="1" gradientUnits="userSpaceOnUse" gradientTransform="translate(100.215 74.8803) rotate(90) scale(1.02088 1.32897)">
<stop stop-color="#FF834E"/>
<stop offset="0.958333" stop-color="#EF412B"/>
</radialGradient>
<radialGradient id="paint88_radial_40_2839" cx="0" cy="0" r="1" gradientUnits="userSpaceOnUse" gradientTransform="translate(102.475 70.5118) rotate(90) scale(1.36631 0.966579)">
<stop stop-color="#FF834E"/>
<stop offset="0.958333" stop-color="#EF412B"/>
</radialGradient>
<radialGradient id="paint89_radial_40_2839" cx="0" cy="0" r="1" gradientUnits="userSpaceOnUse" gradientTransform="translate(95.0699 65.9848) rotate(90) scale(1.28978 1.29546)">
<stop stop-color="#FF834E"/>
<stop offset="0.958333" stop-color="#EF412B"/>
</radialGradient>
<radialGradient id="paint90_radial_40_2839" cx="0" cy="0" r="1" gradientUnits="userSpaceOnUse" gradientTransform="translate(99.332 68.7567) rotate(90) scale(1.19058 1.19579)">
<stop stop-color="#FF834E"/>
<stop offset="0.958333" stop-color="#EF412B"/>
</radialGradient>
<radialGradient id="paint91_radial_40_2839" cx="0" cy="0" r="1" gradientUnits="userSpaceOnUse" gradientTransform="translate(97.2443 72.5865) rotate(90) scale(0.793697 0.797227)">
<stop stop-color="#FF834E"/>
<stop offset="0.958333" stop-color="#EF412B"/>
</radialGradient>
<radialGradient id="paint92_radial_40_2839" cx="0" cy="0" r="1" gradientUnits="userSpaceOnUse" gradientTransform="translate(93.2424 71.0933) rotate(90) scale(0.744094 0.747436)">
<stop stop-color="#FF834E"/>
<stop offset="0.958333" stop-color="#EF412B"/>
</radialGradient>
<radialGradient id="paint93_radial_40_2839" cx="0" cy="0" r="1" gradientUnits="userSpaceOnUse" gradientTransform="translate(91.0839 67.5507) rotate(90) scale(1.09131 1.09616)">
<stop stop-color="#FF834E"/>
<stop offset="0.958333" stop-color="#EF412B"/>
</radialGradient>
<radialGradient id="paint94_radial_40_2839" cx="0" cy="0" r="1" gradientUnits="userSpaceOnUse" gradientTransform="translate(91.5419 72.6675) rotate(90) scale(0.793704 0.797192)">
<stop stop-color="#FF834E"/>
<stop offset="0.958333" stop-color="#EF412B"/>
</radialGradient>
<radialGradient id="paint95_radial_40_2839" cx="0" cy="0" r="1" gradientUnits="userSpaceOnUse" gradientTransform="translate(98.0053 64.5924) rotate(90) scale(0.446487 0.44844)">
<stop stop-color="#FF834E"/>
<stop offset="0.958333" stop-color="#EF412B"/>
</radialGradient>
<radialGradient id="paint96_radial_40_2839" cx="0" cy="0" r="1" gradientUnits="userSpaceOnUse" gradientTransform="translate(93.1368 64.632) rotate(90) scale(0.694521 0.69759)">
<stop stop-color="#FF834E"/>
<stop offset="0.958333" stop-color="#EF412B"/>
</radialGradient>
<radialGradient id="paint97_radial_40_2839" cx="0" cy="0" r="1" gradientUnits="userSpaceOnUse" gradientTransform="translate(95.6072 69.5928) rotate(90) scale(0.694521 0.697561)">
<stop stop-color="#FF834E"/>
<stop offset="0.958333" stop-color="#EF412B"/>
</radialGradient>
<radialGradient id="paint98_radial_40_2839" cx="0" cy="0" r="1" gradientUnits="userSpaceOnUse" gradientTransform="translate(100.268 72.0073) rotate(90) scale(1.04177 1.04636)">
<stop stop-color="#FF834E"/>
<stop offset="0.958333" stop-color="#EF412B"/>
</radialGradient>
<radialGradient id="paint99_radial_40_2839" cx="0" cy="0" r="1" gradientUnits="userSpaceOnUse" gradientTransform="translate(96.7677 77.0416) rotate(90) scale(0.446452 0.44844)">
<stop stop-color="#FF834E"/>
<stop offset="0.958333" stop-color="#EF412B"/>
</radialGradient>
<radialGradient id="paint100_radial_40_2839" cx="0" cy="0" r="1" gradientUnits="userSpaceOnUse" gradientTransform="translate(86.3041 67.3993) rotate(90) scale(0.545689 0.548093)">
<stop stop-color="#FF834E"/>
<stop offset="0.958333" stop-color="#EF412B"/>
</radialGradient>
<radialGradient id="paint101_radial_40_2839" cx="0" cy="0" r="1" gradientUnits="userSpaceOnUse" gradientTransform="translate(92.1837 61.3349) rotate(90) scale(0.54569 0.548092)">
<stop stop-color="#FF834E"/>
<stop offset="0.958333" stop-color="#EF412B"/>
</radialGradient>
<radialGradient id="paint102_radial_40_2839" cx="0" cy="0" r="1" gradientUnits="userSpaceOnUse" gradientTransform="translate(109.049 67.6556) rotate(90) scale(1.35007 0.950721)">
<stop stop-color="#FF834E"/>
<stop offset="0.958333" stop-color="#EF412B"/>
</radialGradient>
<radialGradient id="paint103_radial_40_2839" cx="0" cy="0" r="1" gradientUnits="userSpaceOnUse" gradientTransform="translate(107.81 74.9945) rotate(90) scale(1.31209 1.00345)">
<stop stop-color="#FF834E"/>
<stop offset="0.958333" stop-color="#EF412B"/>
</radialGradient>
<radialGradient id="paint104_radial_40_2839" cx="0" cy="0" r="1" gradientUnits="userSpaceOnUse" gradientTransform="translate(103.305 80.5792) rotate(90) scale(1.06143 1.26766)">
<stop stop-color="#FF834E"/>
<stop offset="0.958333" stop-color="#EF412B"/>
</radialGradient>
<radialGradient id="paint105_radial_40_2839" cx="0" cy="0" r="1" gradientUnits="userSpaceOnUse" gradientTransform="translate(96.2683 83.0583) rotate(90) scale(0.941669 1.3594)">
<stop stop-color="#FF834E"/>
<stop offset="0.958333" stop-color="#EF412B"/>
</radialGradient>
<radialGradient id="paint106_radial_40_2839" cx="0" cy="0" r="1" gradientUnits="userSpaceOnUse" gradientTransform="translate(82.0573 63.1838) rotate(90) scale(1.33758 0.968564)">
<stop stop-color="#FF834E"/>
<stop offset="0.958333" stop-color="#EF412B"/>
</radialGradient>
<radialGradient id="paint107_radial_40_2839" cx="0" cy="0" r="1" gradientUnits="userSpaceOnUse" gradientTransform="translate(86.6017 57.4372) rotate(90) scale(1.13867 1.19777)">
<stop stop-color="#FF834E"/>
<stop offset="0.958333" stop-color="#EF412B"/>
</radialGradient>
<radialGradient id="paint108_radial_40_2839" cx="0" cy="0" r="1" gradientUnits="userSpaceOnUse" gradientTransform="translate(93.6314 54.9476) rotate(90) scale(0.947564 1.35542)">
<stop stop-color="#FF834E"/>
<stop offset="0.958333" stop-color="#EF412B"/>
</radialGradient>
<radialGradient id="paint109_radial_40_2839" cx="0" cy="0" r="1" gradientUnits="userSpaceOnUse" gradientTransform="translate(101.053 56.176) rotate(90) scale(1.01957 1.30173)">
<stop stop-color="#FF834E"/>
<stop offset="0.958333" stop-color="#EF412B"/>
</radialGradient>
<radialGradient id="paint110_radial_40_2839" cx="0" cy="0" r="1" gradientUnits="userSpaceOnUse" gradientTransform="translate(106.738 60.7321) rotate(90) scale(1.22484 1.10876)">
<stop stop-color="#FF834E"/>
<stop offset="0.958333" stop-color="#EF412B"/>
</radialGradient>
<radialGradient id="paint111_radial_40_2839" cx="0" cy="0" r="1" gradientUnits="userSpaceOnUse" gradientTransform="translate(106.647 64.7652) rotate(90) scale(0.887624 0.694512)">
<stop stop-color="#FF834E"/>
<stop offset="0.958333" stop-color="#EF412B"/>
</radialGradient>
<radialGradient id="paint112_radial_40_2839" cx="0" cy="0" r="1" gradientUnits="userSpaceOnUse" gradientTransform="translate(107.078 71.0987) rotate(90) scale(0.920914 0.649095)">
<stop stop-color="#FF834E"/>
<stop offset="0.958333" stop-color="#EF412B"/>
</radialGradient>
<radialGradient id="paint113_radial_40_2839" cx="0" cy="0" r="1" gradientUnits="userSpaceOnUse" gradientTransform="translate(104.257 76.8064) rotate(90) scale(0.837809 0.754083)">
<stop stop-color="#FF834E"/>
<stop offset="0.958333" stop-color="#EF412B"/>
</radialGradient>
<radialGradient id="paint114_radial_40_2839" cx="0" cy="0" r="1" gradientUnits="userSpaceOnUse" gradientTransform="translate(99.257 80.5867) rotate(90) scale(0.678544 0.901507)">
<stop stop-color="#FF834E"/>
<stop offset="0.958333" stop-color="#EF412B"/>
</radialGradient>
<radialGradient id="paint115_radial_40_2839" cx="0" cy="0" r="1" gradientUnits="userSpaceOnUse" gradientTransform="translate(93.0116 81.0276) rotate(90) scale(0.662822 0.913142)">
<stop stop-color="#FF834E"/>
<stop offset="0.958333" stop-color="#EF412B"/>
</radialGradient>
<radialGradient id="paint116_radial_40_2839" cx="0" cy="0" r="1" gradientUnits="userSpaceOnUse" gradientTransform="translate(87.1501 78.3008) rotate(90) scale(0.752591 0.839646)">
<stop stop-color="#FF834E"/>
<stop offset="0.958333" stop-color="#EF412B"/>
</radialGradient>
<radialGradient id="paint117_radial_40_2839" cx="0" cy="0" r="1" gradientUnits="userSpaceOnUse" gradientTransform="translate(83.4268 73.3047) rotate(90) scale(0.867617 0.719227)">
<stop stop-color="#FF834E"/>
<stop offset="0.958333" stop-color="#EF412B"/>
</radialGradient>
<radialGradient id="paint118_radial_40_2839" cx="0" cy="0" r="1" gradientUnits="userSpaceOnUse" gradientTransform="translate(82.8827 67.1108) rotate(90) scale(0.919151 0.651264)">
<stop stop-color="#FF834E"/>
<stop offset="0.958333" stop-color="#EF412B"/>
</radialGradient>
<radialGradient id="paint119_radial_40_2839" cx="0" cy="0" r="1" gradientUnits="userSpaceOnUse" gradientTransform="translate(85.5959 61.2646) rotate(90) scale(0.873692 0.711898)">
<stop stop-color="#FF834E"/>
<stop offset="0.958333" stop-color="#EF412B"/>
</radialGradient>
<radialGradient id="paint120_radial_40_2839" cx="0" cy="0" r="1" gradientUnits="userSpaceOnUse" gradientTransform="translate(90.7377 57.4468) rotate(90) scale(0.686749 0.894984)">
<stop stop-color="#FF834E"/>
<stop offset="0.958333" stop-color="#EF412B"/>
</radialGradient>
<radialGradient id="paint121_radial_40_2839" cx="0" cy="0" r="1" gradientUnits="userSpaceOnUse" gradientTransform="translate(97.0415 57.0388) rotate(90) scale(0.64269 0.927192)">
<stop stop-color="#FF834E"/>
<stop offset="0.958333" stop-color="#EF412B"/>
</radialGradient>
<radialGradient id="paint122_radial_40_2839" cx="0" cy="0" r="1" gradientUnits="userSpaceOnUse" gradientTransform="translate(102.881 59.6532) rotate(90) scale(0.74698 0.84473)">
<stop stop-color="#FF834E"/>
<stop offset="0.958333" stop-color="#EF412B"/>
</radialGradient>
<clipPath id="clip0_40_2839">
<rect width="64" height="64" fill="white" transform="translate(5 44)"/>
</clipPath>
<clipPath id="clip1_40_2839">
<rect width="47" height="47" fill="white" transform="translate(47 3)"/>
</clipPath>
<clipPath id="clip2_40_2839">
<rect width="30" height="30" fill="white" transform="translate(80 54)"/>
</clipPath>
</defs>
</svg>
