<svg width="50" height="50" viewBox="0 0 50 50" fill="none" xmlns="http://www.w3.org/2000/svg">
<g clip-path="url(#clip0_39_2763)">
<path d="M31.7269 44.5679L32.5731 44.257C30.6441 39.035 31.0391 40.1162 33.1078 38.9177C34.7606 40.1461 35.7671 41.2541 38.3116 44.8428L39.4391 44.0494C34.3248 36.8311 35.4036 37.4656 36.7664 36.0081C37.7049 36.4583 38.5862 37.0879 40.386 38.5795L40.9627 37.8889C39.1715 36.4027 38.3424 35.7394 37.7327 34.8729C38.9 33.3639 38.1096 32.0172 46.2169 35.7432L46.7948 34.4957C38.6537 30.7499 40.1661 31.0077 40.7177 28.4766C41.7533 28.4009 42.8329 28.5077 45.1336 28.9026L45.2864 28.0172C39.9877 27.1064 41.0872 27.3627 41.0864 25.0905C42.8868 24.3432 44.4031 24.0377 48.6384 23.6523L48.512 22.2838C39.7537 23.0779 41.0569 22.5854 40.3614 20.359C41.2628 19.7191 42.2328 19.2694 44.5661 18.4147L44.2543 17.5711C41.925 18.4246 40.951 18.8026 39.8101 18.8622C39.0421 17.0524 37.4209 17.071 44.8427 11.8596L44.0464 10.7355C40.4501 13.2612 39.2915 14.1282 37.1625 14.6257C36.7858 14.1925 36.3865 13.7831 35.9689 13.396C36.4211 12.4622 37.0529 11.5845 38.5519 9.79375L37.8579 9.21836C36.3654 11.0022 35.6988 11.8269 34.8292 12.4342C33.3078 11.2673 31.9599 12.055 35.7033 3.98865L34.449 3.41227C30.0651 12.8594 27.7517 11.2998 28.8325 5.06645L27.9433 4.91382C27.545 7.20796 27.3825 8.2541 26.931 9.21514C25.0981 8.99399 24.3595 10.3159 23.5597 1.57726L22.1847 1.70218C22.5683 5.90133 22.7445 7.38656 22.1941 9.34946C21.5449 9.46598 20.8962 9.61762 20.2514 9.81725C19.6086 8.92027 19.1567 7.95453 18.2977 5.63095L17.451 5.94116C18.3082 8.26053 18.6876 9.22998 18.7472 10.3662C16.9203 11.135 16.9481 12.7422 11.7135 5.35588L10.5857 6.14895C15.7001 13.3673 14.6195 12.734 13.2579 14.191C12.3195 13.7408 11.4382 13.1113 9.63884 11.6191L9.06141 12.3093C10.8531 13.7957 11.6819 14.4594 12.2917 15.3252C11.1194 16.8409 11.9108 18.1814 3.80843 14.4552L3.22951 15.7032C11.3212 19.4255 9.86121 19.1766 9.30714 21.7218C8.27105 21.7973 7.19173 21.6909 4.89097 21.2956L4.73767 22.1807C7.04266 22.5772 8.0929 22.739 9.05868 23.189C8.83705 25.0109 10.1671 25.7486 1.38642 26.5458L1.51189 27.9141C5.72978 27.5324 7.22105 27.3572 9.19359 27.9044C9.57747 30.036 10.6672 29.8755 5.45796 31.7845L5.76978 32.6275C11.0158 30.7059 9.92978 31.1007 11.1333 33.1593C9.89947 34.8054 8.78661 35.8072 5.18167 38.3393L5.97824 39.4632C9.57448 36.9372 10.7336 36.0707 12.8626 35.573C14.0875 36.9805 14.8712 36.342 11.4725 40.4054L12.1659 40.9798C15.6089 36.8657 14.8076 37.6843 16.8577 38.8848C16.6114 40.8588 16.1326 42.3045 14.3209 46.2107L15.5748 46.7866C19.3137 38.7287 19.0635 40.1828 21.6199 40.7354C21.6957 41.7664 21.5886 42.8418 21.1918 45.1324L22.0808 45.2846C22.4791 42.9897 22.6416 41.9441 23.0931 40.9828C24.9227 41.2037 25.6636 39.877 26.4649 48.6219L27.8397 48.4962C27.4563 44.2971 27.2799 42.8123 27.8302 40.8487C29.9727 40.466 29.8085 39.382 31.7269 44.5679V44.5679Z" fill="#F17F49"/>
<path d="M14.5835 34.56C13.6624 34.8974 12.2253 33.3026 11.3736 30.9981C10.5221 28.6943 10.5783 26.5523 11.4993 26.2149C12.4206 25.8774 13.8575 27.4723 14.709 29.776C15.5607 32.0806 15.5045 34.2226 14.5835 34.56Z" fill="url(#paint0_radial_39_2763)"/>
<path d="M37.2601 21.9553C36.4896 22.2378 35.2873 20.9035 34.5747 18.9755C33.8624 17.048 33.9094 15.2562 34.6801 14.974C35.4506 14.6915 36.6529 16.0258 37.3652 17.9533C38.0778 19.8814 38.0308 21.6731 37.2601 21.9553V21.9553Z" fill="url(#paint1_radial_39_2763)"/>
<path d="M13.162 21.402C12.3235 20.8944 12.6825 18.7823 13.9646 16.6836C15.2451 14.5863 16.9642 13.297 17.8026 13.8044C18.6411 14.3125 18.2818 16.4243 17.0008 18.5216C15.719 20.6203 14.0006 21.9101 13.162 21.402Z" fill="url(#paint2_radial_39_2763)"/>
<path d="M26.5586 37.0985C26.4545 38.1585 24.68 38.8526 22.5956 38.6491C20.5115 38.4465 18.9057 37.4228 19.0096 36.3633C19.1137 35.3041 20.8882 34.6097 22.9728 34.8128C25.0571 35.0159 26.6627 36.0385 26.5586 37.0985Z" fill="url(#paint3_radial_39_2763)"/>
<path d="M30.9556 12.8525C30.8515 13.9123 29.0773 14.6064 26.9929 14.403C24.9086 14.2004 23.3028 13.1768 23.4069 12.1173C23.511 11.0581 25.2855 10.3634 27.3698 10.5668C29.4544 10.7699 31.0597 11.7925 30.9556 12.8525Z" fill="url(#paint4_radial_39_2763)"/>
<path d="M35.8001 33.479C36.1743 34.0707 35.5338 35.142 34.3695 35.872C33.2055 36.6018 31.9584 36.7138 31.5837 36.1221C31.2098 35.5304 31.8501 34.4588 33.0144 33.7288C34.1784 32.999 35.4255 32.887 35.8001 33.479Z" fill="url(#paint5_radial_39_2763)"/>
<path d="M38.6093 25.3194C39.2322 25.6422 39.222 26.889 38.5871 28.1043C37.9521 29.3191 36.9321 30.0427 36.3087 29.7199C35.6859 29.3968 35.6958 28.1498 36.3309 26.9347C36.9657 25.7199 37.9856 24.9963 38.6093 25.3194Z" fill="url(#paint6_radial_39_2763)"/>
<path d="M25.8619 21.9915C24.7431 22.4014 23.5023 21.8307 23.0908 20.7167C22.6791 19.6028 23.2523 18.3677 24.3711 17.9578C25.49 17.5479 26.7305 18.1186 27.1422 19.2325C27.5539 20.3464 26.9807 21.5818 25.8619 21.9915Z" fill="url(#paint7_radial_39_2763)"/>
<path d="M32.908 26.4563C31.8754 26.8345 30.73 26.3076 30.3501 25.2795C29.9702 24.2515 30.4995 23.1111 31.5321 22.7328C32.5647 22.3544 33.7101 22.8813 34.09 23.9096C34.4699 24.9377 33.9409 26.0778 32.908 26.4563Z" fill="url(#paint8_radial_39_2763)"/>
<path d="M29.1993 32.2186C28.5108 32.4709 27.7472 32.1196 27.4938 31.4342C27.2406 30.7487 27.5934 29.9885 28.2819 29.7365C28.9702 29.4841 29.7339 29.8354 29.9871 30.5209C30.2406 31.2063 29.8877 31.9665 29.1993 32.2186V32.2186Z" fill="url(#paint9_radial_39_2763)"/>
<path d="M22.5007 29.6523C21.8552 29.8888 21.1394 29.5596 20.9019 28.9169C20.6643 28.2742 20.995 27.5618 21.6405 27.3253C22.286 27.0888 23.0019 27.4178 23.2394 28.0607C23.4769 28.7034 23.1462 29.4159 22.5007 29.6523Z" fill="url(#paint10_radial_39_2763)"/>
<path d="M19.104 24.291C18.1574 24.6378 17.1074 24.155 16.759 23.2125C16.4109 22.27 16.8959 21.2248 17.8426 20.878C18.7892 20.5312 19.8389 21.0143 20.1873 21.9566C20.5356 22.8991 20.0506 23.9442 19.104 24.291Z" fill="url(#paint11_radial_39_2763)"/>
<path d="M19.6951 32.3537C19.0066 32.6057 18.2431 32.2545 17.9899 31.5692C17.7365 30.8838 18.0893 30.1236 18.7778 29.8713C19.4663 29.6192 20.2298 29.9702 20.483 30.6557C20.7364 31.3412 20.3836 32.1013 19.6951 32.3537Z" fill="url(#paint12_radial_39_2763)"/>
<path d="M30.2669 18.3521C29.8795 18.4941 29.4502 18.2962 29.3076 17.9108C29.1652 17.5254 29.3635 17.0977 29.7508 16.9557C30.1382 16.8139 30.5675 17.0116 30.7102 17.397C30.8525 17.7824 30.6543 18.2101 30.2669 18.3521Z" fill="url(#paint13_radial_39_2763)"/>
<path d="M22.296 18.806C21.6937 19.0267 21.0256 18.7197 20.804 18.1196C20.5821 17.5197 20.8909 16.8548 21.4935 16.6341C22.0957 16.4132 22.7638 16.7204 22.9855 17.3203C23.2073 17.9204 22.8985 18.5854 22.296 18.806Z" fill="url(#paint14_radial_39_2763)"/>
<path d="M26.4133 27.074C25.8107 27.2949 25.1429 26.9877 24.9212 26.3878C24.6994 25.7876 25.0082 25.1227 25.6105 24.9021C26.213 24.6814 26.8809 24.9884 27.1027 25.5885C27.3244 26.1884 27.0158 26.8533 26.4133 27.074Z" fill="url(#paint15_radial_39_2763)"/>
<path d="M34.3819 31.6412C33.4785 31.9722 32.4762 31.5111 32.1438 30.6117C31.8113 29.712 32.2742 28.7141 33.1779 28.3831C34.0815 28.0521 35.0836 28.5132 35.4163 29.4127C35.7487 30.3123 35.2856 31.3102 34.3819 31.6412Z" fill="url(#paint16_radial_39_2763)"/>
<path d="M28.2042 39.1008C27.8168 39.2428 27.3875 39.0449 27.2449 38.6594C27.1025 38.274 27.3008 37.8463 27.6881 37.7046C28.0755 37.5626 28.5048 37.7602 28.6474 38.1457C28.7898 38.5313 28.5915 38.959 28.2042 39.1008V39.1008Z" fill="url(#paint17_radial_39_2763)"/>
<path d="M10.8223 23.1855C10.3489 23.3589 9.82394 23.1175 9.64977 22.6463C9.47559 22.175 9.71809 21.6523 10.1914 21.4789C10.6647 21.3055 11.1897 21.5472 11.3639 22.0184C11.5381 22.4894 11.2953 23.0121 10.8223 23.1855Z" fill="url(#paint18_radial_39_2763)"/>
<path d="M20.6216 13.0781C20.1483 13.2515 19.6233 13.0101 19.4491 12.5388C19.2749 12.0676 19.5174 11.5449 19.9908 11.3715C20.4641 11.1981 20.9891 11.4398 21.1632 11.9108C21.3374 12.382 21.0947 12.9047 20.6216 13.0781Z" fill="url(#paint19_radial_39_2763)"/>
<path d="M48.6394 25.004C47.773 25.0895 46.971 24.1542 46.847 22.9146C46.7233 21.6746 47.3253 20.6005 48.1917 20.5146C49.0576 20.4288 49.8601 21.3641 49.9839 22.6042C50.1076 23.8438 49.5056 24.9184 48.6394 25.004Z" fill="url(#paint20_radial_39_2763)"/>
<path d="M45.5734 37.1101C44.7555 36.8126 44.4404 35.6237 44.869 34.4531C45.2984 33.2823 46.3086 32.5751 47.1268 32.8717C47.9442 33.169 48.2595 34.3584 47.8309 35.5287C47.4021 36.6993 46.3913 37.4067 45.5734 37.1101Z" fill="url(#paint21_radial_39_2763)"/>
<path d="M36.8837 45.4352C36.4452 44.6857 36.9657 43.5708 38.0465 42.9429C39.1278 42.3149 40.3594 42.4141 40.7985 43.1621C41.2365 43.9107 40.7157 45.0263 39.6352 45.6542C38.5539 46.2822 37.3222 46.1835 36.8837 45.4352V45.4352Z" fill="url(#paint22_radial_39_2763)"/>
<path d="M24.8482 48.4579C24.8383 47.5903 25.8433 46.8764 27.095 46.8613C28.3465 46.8467 29.3685 47.5374 29.3794 48.4039C29.3893 49.27 28.3833 49.9847 27.1325 49.9997C25.881 50.0151 24.8584 49.3239 24.8482 48.4579Z" fill="url(#paint23_radial_39_2763)"/>
<path d="M12.8733 45.5255C13.2512 44.7438 14.4704 44.5484 15.5982 45.0889C16.7265 45.6287 17.3332 46.6998 16.9568 47.4812C16.5794 48.2617 15.3594 48.4571 14.2319 47.9171C13.1036 47.3771 12.4961 46.3062 12.8733 45.5255Z" fill="#FF834E"/>
<path d="M4.59356 36.7035C5.33522 36.2483 6.46796 36.7391 7.12415 37.8001C7.78084 38.8606 7.71102 40.0893 6.9701 40.5442C6.22969 40.9983 5.09645 40.5071 4.43977 39.4463C3.78358 38.3856 3.8524 37.1576 4.59356 36.7035V36.7035Z" fill="#FF834E"/>
<path d="M1.28312 24.81C2.14702 24.6915 2.98384 25.5954 3.15379 26.8303C3.32498 28.0642 2.76296 29.1603 1.9008 29.2788C1.03913 29.3971 0.201565 28.4917 0.0303749 27.2575C-0.139822 26.0234 0.421454 24.9275 1.28312 24.81V24.81Z" fill="#FF834E"/>
<path d="M3.90955 13.1026C4.76128 13.2869 5.23534 14.4218 4.96899 15.6401C4.70363 16.857 3.79724 17.6943 2.94651 17.5103C2.09677 17.3265 1.6232 16.1898 1.88806 14.9725C2.15441 13.7549 3.05981 12.9178 3.90955 13.1026V13.1026Z" fill="url(#paint24_radial_39_2763)"/>
<path d="M12.7071 4.24344C13.281 4.8965 12.9829 6.08909 12.0407 6.91036C11.1 7.7309 9.87065 7.86572 9.2977 7.21414C8.7245 6.56231 9.02389 5.36824 9.96482 4.54746C10.9067 3.72717 12.1349 3.59111 12.7071 4.24344V4.24344Z" fill="url(#paint25_radial_39_2763)"/>
<path d="M24.9717 1.34073C25.0639 2.20307 24.1309 3.00802 22.8856 3.14012C21.6425 3.27247 20.5592 2.67877 20.4661 1.81767C20.3746 0.956067 21.3093 0.150868 22.5531 0.018276C23.7972 -0.113079 24.8802 0.478884 24.9717 1.34073Z" fill="url(#paint26_radial_39_2763)"/>
<path d="M37.162 4.53262C36.8114 5.32718 35.6004 5.56466 34.4532 5.06323C33.3083 4.56403 32.6638 3.51319 33.0131 2.71913C33.363 1.92605 34.5762 1.68956 35.7221 2.1895C36.8675 2.69043 37.5121 3.73954 37.162 4.53262V4.53262Z" fill="url(#paint27_radial_39_2763)"/>
<path d="M45.9051 13.0368C45.2029 13.5506 44.0349 13.1541 43.2928 12.15C42.5506 11.1476 42.5193 9.91693 43.2197 9.40264C43.9209 8.88984 45.0911 9.28836 45.8328 10.2905C46.5737 11.2938 46.6063 12.5235 45.9051 13.0368Z" fill="url(#paint28_radial_39_2763)"/>
<path d="M45.0069 19.3624C44.4581 19.5899 43.7484 19.1387 43.4195 18.3538C43.0905 17.5699 43.2699 16.7489 43.818 16.521C44.3661 16.2944 45.0767 16.7466 45.4054 17.5306C45.7334 18.315 45.5553 19.135 45.0069 19.3624Z" fill="url(#paint29_radial_39_2763)"/>
<path d="M44.9679 30.0286C44.3768 29.9663 43.9711 29.2318 44.0605 28.386C44.1492 27.5408 44.7015 26.906 45.2926 26.9671C45.8825 27.0304 46.2887 27.7659 46.1995 28.6109C46.1101 29.4557 45.5585 30.0904 44.9679 30.0286V30.0286Z" fill="url(#paint30_radial_39_2763)"/>
<path d="M39.5226 39.2578C39.0408 38.9105 39.0565 38.0722 39.5569 37.3832C40.0561 36.6938 40.8526 36.4172 41.3344 36.7636C41.8147 37.1104 41.7995 37.9502 41.2996 38.6387C40.7992 39.3268 40.0039 39.6042 39.5226 39.2578V39.2578Z" fill="url(#paint31_radial_39_2763)"/>
<path d="M30.6346 44.8156C30.4403 44.2562 30.9355 43.5779 31.7428 43.2997C32.5485 43.0201 33.3607 43.2484 33.5555 43.8073C33.7493 44.3658 33.2527 45.0446 32.4469 45.3237C31.6404 45.6012 30.8292 45.3744 30.6346 44.8156Z" fill="url(#paint32_radial_39_2763)"/>
<path d="M20.1873 44.6703C20.3329 44.0964 21.1208 43.7998 21.9491 44.0076C22.7765 44.2147 23.3301 44.8492 23.1847 45.4229C23.0386 45.9955 22.2495 46.2919 21.4221 46.0846C20.595 45.876 20.0419 45.2435 20.1873 44.6703V44.6703Z" fill="url(#paint33_radial_39_2763)"/>
<path d="M10.6707 39.5913C11.0228 39.1146 11.8646 39.1354 12.5535 39.6385C13.2415 40.1402 13.5141 40.9353 13.1628 41.4124C12.8107 41.8879 11.9679 41.8669 11.2799 41.3649C10.5922 40.8613 10.3194 40.0682 10.6707 39.5913Z" fill="url(#paint34_radial_39_2763)"/>
<path d="M4.97446 30.8222C5.49747 30.5402 6.24981 30.9164 6.65729 31.6647C7.06427 32.4113 6.96961 33.2454 6.44734 33.5279C5.92507 33.8085 5.17223 33.4305 4.765 32.6844C4.35926 31.9373 4.45269 31.1034 4.97446 30.8222V30.8222Z" fill="url(#paint35_radial_39_2763)"/>
<path d="M5.00601 20.3259C5.59561 20.4038 5.98272 21.1487 5.87066 21.9922C5.7596 22.8343 5.19112 23.4539 4.60177 23.3767C4.01366 23.2988 3.62705 22.5527 3.73811 21.7107C3.85042 20.8686 4.41766 20.2487 5.00601 20.3259Z" fill="url(#paint36_radial_39_2763)"/>
<path d="M10.0232 10.7345C10.5542 11.0024 10.6717 11.8328 10.2856 12.592C9.90072 13.3502 9.15856 13.748 8.62785 13.4806C8.09887 13.2134 7.98184 12.3818 8.36646 11.6238C8.75257 10.8663 9.49374 10.4676 10.0232 10.7345Z" fill="url(#paint37_radial_39_2763)"/>
<path d="M19.3348 5.18197C19.5517 5.73386 19.0839 6.4312 18.288 6.74165C17.4937 7.05211 16.674 6.85668 16.4571 6.30529C16.2412 5.75538 16.7103 5.05729 17.5039 4.74709C18.299 4.43787 19.1187 4.63206 19.3348 5.18197V5.18197Z" fill="url(#paint38_radial_39_2763)"/>
<path d="M29.9479 5.05606C29.9509 5.64827 29.2619 6.13114 28.4074 6.13584C27.5542 6.14079 26.8602 5.66509 26.8573 5.07263C26.8543 4.48215 27.5443 3.99903 28.397 3.99359C29.2504 3.99062 29.9449 4.46484 29.9479 5.05606Z" fill="url(#paint39_radial_39_2763)"/>
<path d="M39.3996 10.306C39.0575 10.7909 38.2152 10.7867 37.5158 10.2974C36.8176 9.80957 36.5291 9.02119 36.8713 8.53634C37.2124 8.05347 38.0564 8.05817 38.7544 8.54574C39.4515 9.03554 39.7412 9.82244 39.3996 10.306Z" fill="url(#paint40_radial_39_2763)"/>
</g>
<defs>
<radialGradient id="paint0_radial_39_2763" cx="0" cy="0" r="1" gradientUnits="userSpaceOnUse" gradientTransform="translate(13.0414 30.3874) rotate(90) scale(4.2176 2.27137)">
<stop stop-color="#FF834E"/>
<stop offset="0.958333" stop-color="#EF412B"/>
</radialGradient>
<radialGradient id="paint1_radial_39_2763" cx="0" cy="0" r="1" gradientUnits="userSpaceOnUse" gradientTransform="translate(35.9701 18.4647) rotate(90) scale(3.52841 1.90029)">
<stop stop-color="#FF834E"/>
<stop offset="0.958333" stop-color="#EF412B"/>
</radialGradient>
<radialGradient id="paint2_radial_39_2763" cx="0" cy="0" r="1" gradientUnits="userSpaceOnUse" gradientTransform="translate(15.4823 17.6033) rotate(90) scale(3.90932 2.77318)">
<stop stop-color="#FF834E"/>
<stop offset="0.958333" stop-color="#EF412B"/>
</radialGradient>
<radialGradient id="paint3_radial_39_2763" cx="0" cy="0" r="1" gradientUnits="userSpaceOnUse" gradientTransform="translate(22.7841 36.731) rotate(90) scale(1.95349 3.77929)">
<stop stop-color="#FF834E"/>
<stop offset="0.958333" stop-color="#EF412B"/>
</radialGradient>
<radialGradient id="paint4_radial_39_2763" cx="0" cy="0" r="1" gradientUnits="userSpaceOnUse" gradientTransform="translate(27.1813 12.4849) rotate(90) scale(1.95349 3.77918)">
<stop stop-color="#FF834E"/>
<stop offset="0.958333" stop-color="#EF412B"/>
</radialGradient>
<radialGradient id="paint5_radial_39_2763" cx="0" cy="0" r="1" gradientUnits="userSpaceOnUse" gradientTransform="translate(33.692 34.8004) rotate(90) scale(1.70147 2.21494)">
<stop stop-color="#FF834E"/>
<stop offset="0.958333" stop-color="#EF412B"/>
</radialGradient>
<radialGradient id="paint6_radial_39_2763" cx="0" cy="0" r="1" gradientUnits="userSpaceOnUse" gradientTransform="translate(37.459 27.5196) rotate(90) scale(2.27718 1.61097)">
<stop stop-color="#FF834E"/>
<stop offset="0.958333" stop-color="#EF412B"/>
</radialGradient>
<radialGradient id="paint7_radial_39_2763" cx="0" cy="0" r="1" gradientUnits="userSpaceOnUse" gradientTransform="translate(25.1165 19.9746) rotate(90) scale(2.14964 2.1591)">
<stop stop-color="#FF834E"/>
<stop offset="0.958333" stop-color="#EF412B"/>
</radialGradient>
<radialGradient id="paint8_radial_39_2763" cx="0" cy="0" r="1" gradientUnits="userSpaceOnUse" gradientTransform="translate(32.2201 24.5945) rotate(90) scale(1.9843 1.99299)">
<stop stop-color="#FF834E"/>
<stop offset="0.958333" stop-color="#EF412B"/>
</radialGradient>
<radialGradient id="paint9_radial_39_2763" cx="0" cy="0" r="1" gradientUnits="userSpaceOnUse" gradientTransform="translate(28.7405 30.9775) rotate(90) scale(1.32283 1.32871)">
<stop stop-color="#FF834E"/>
<stop offset="0.958333" stop-color="#EF412B"/>
</radialGradient>
<radialGradient id="paint10_radial_39_2763" cx="0" cy="0" r="1" gradientUnits="userSpaceOnUse" gradientTransform="translate(22.0706 28.4888) rotate(90) scale(1.24016 1.24573)">
<stop stop-color="#FF834E"/>
<stop offset="0.958333" stop-color="#EF412B"/>
</radialGradient>
<radialGradient id="paint11_radial_39_2763" cx="0" cy="0" r="1" gradientUnits="userSpaceOnUse" gradientTransform="translate(18.4732 22.5845) rotate(90) scale(1.81886 1.82694)">
<stop stop-color="#FF834E"/>
<stop offset="0.958333" stop-color="#EF412B"/>
</radialGradient>
<radialGradient id="paint12_radial_39_2763" cx="0" cy="0" r="1" gradientUnits="userSpaceOnUse" gradientTransform="translate(19.2364 31.1125) rotate(90) scale(1.32284 1.32865)">
<stop stop-color="#FF834E"/>
<stop offset="0.958333" stop-color="#EF412B"/>
</radialGradient>
<radialGradient id="paint13_radial_39_2763" cx="0" cy="0" r="1" gradientUnits="userSpaceOnUse" gradientTransform="translate(30.0089 17.654) rotate(90) scale(0.744145 0.7474)">
<stop stop-color="#FF834E"/>
<stop offset="0.958333" stop-color="#EF412B"/>
</radialGradient>
<radialGradient id="paint14_radial_39_2763" cx="0" cy="0" r="1" gradientUnits="userSpaceOnUse" gradientTransform="translate(21.8947 17.72) rotate(90) scale(1.15753 1.16265)">
<stop stop-color="#FF834E"/>
<stop offset="0.958333" stop-color="#EF412B"/>
</radialGradient>
<radialGradient id="paint15_radial_39_2763" cx="0" cy="0" r="1" gradientUnits="userSpaceOnUse" gradientTransform="translate(26.0119 25.9881) rotate(90) scale(1.15753 1.1626)">
<stop stop-color="#FF834E"/>
<stop offset="0.958333" stop-color="#EF412B"/>
</radialGradient>
<radialGradient id="paint16_radial_39_2763" cx="0" cy="0" r="1" gradientUnits="userSpaceOnUse" gradientTransform="translate(33.78 30.0122) rotate(90) scale(1.73628 1.74394)">
<stop stop-color="#FF834E"/>
<stop offset="0.958333" stop-color="#EF412B"/>
</radialGradient>
<radialGradient id="paint17_radial_39_2763" cx="0" cy="0" r="1" gradientUnits="userSpaceOnUse" gradientTransform="translate(27.9461 38.4027) rotate(90) scale(0.744087 0.7474)">
<stop stop-color="#FF834E"/>
<stop offset="0.958333" stop-color="#EF412B"/>
</radialGradient>
<radialGradient id="paint18_radial_39_2763" cx="0" cy="0" r="1" gradientUnits="userSpaceOnUse" gradientTransform="translate(10.5068 22.3322) rotate(90) scale(0.909481 0.913488)">
<stop stop-color="#FF834E"/>
<stop offset="0.958333" stop-color="#EF412B"/>
</radialGradient>
<radialGradient id="paint19_radial_39_2763" cx="0" cy="0" r="1" gradientUnits="userSpaceOnUse" gradientTransform="translate(20.3062 12.2248) rotate(90) scale(0.909483 0.913487)">
<stop stop-color="#FF834E"/>
<stop offset="0.958333" stop-color="#EF412B"/>
</radialGradient>
<radialGradient id="paint20_radial_39_2763" cx="0" cy="0" r="1" gradientUnits="userSpaceOnUse" gradientTransform="translate(48.4154 22.7593) rotate(90) scale(2.25011 1.58454)">
<stop stop-color="#FF834E"/>
<stop offset="0.958333" stop-color="#EF412B"/>
</radialGradient>
<radialGradient id="paint21_radial_39_2763" cx="0" cy="0" r="1" gradientUnits="userSpaceOnUse" gradientTransform="translate(46.3499 34.9909) rotate(90) scale(2.18682 1.67241)">
<stop stop-color="#FF834E"/>
<stop offset="0.958333" stop-color="#EF412B"/>
</radialGradient>
<radialGradient id="paint22_radial_39_2763" cx="0" cy="0" r="1" gradientUnits="userSpaceOnUse" gradientTransform="translate(38.8409 44.2986) rotate(90) scale(1.76905 2.11276)">
<stop stop-color="#FF834E"/>
<stop offset="0.958333" stop-color="#EF412B"/>
</radialGradient>
<radialGradient id="paint23_radial_39_2763" cx="0" cy="0" r="1" gradientUnits="userSpaceOnUse" gradientTransform="translate(27.1138 48.4305) rotate(90) scale(1.56945 2.26567)">
<stop stop-color="#FF834E"/>
<stop offset="0.958333" stop-color="#EF412B"/>
</radialGradient>
<radialGradient id="paint24_radial_39_2763" cx="0" cy="0" r="1" gradientUnits="userSpaceOnUse" gradientTransform="translate(3.42884 15.3063) rotate(90) scale(2.2293 1.61427)">
<stop stop-color="#FF834E"/>
<stop offset="0.958333" stop-color="#EF412B"/>
</radialGradient>
<radialGradient id="paint25_radial_39_2763" cx="0" cy="0" r="1" gradientUnits="userSpaceOnUse" gradientTransform="translate(11.0028 5.72872) rotate(90) scale(1.89779 1.99628)">
<stop stop-color="#FF834E"/>
<stop offset="0.958333" stop-color="#EF412B"/>
</radialGradient>
<radialGradient id="paint26_radial_39_2763" cx="0" cy="0" r="1" gradientUnits="userSpaceOnUse" gradientTransform="translate(22.7189 1.5793) rotate(90) scale(1.57927 2.25904)">
<stop stop-color="#FF834E"/>
<stop offset="0.958333" stop-color="#EF412B"/>
</radialGradient>
<radialGradient id="paint27_radial_39_2763" cx="0" cy="0" r="1" gradientUnits="userSpaceOnUse" gradientTransform="translate(35.0877 3.62673) rotate(90) scale(1.69929 2.16954)">
<stop stop-color="#FF834E"/>
<stop offset="0.958333" stop-color="#EF412B"/>
</radialGradient>
<radialGradient id="paint28_radial_39_2763" cx="0" cy="0" r="1" gradientUnits="userSpaceOnUse" gradientTransform="translate(44.5625 11.2202) rotate(90) scale(2.0414 1.84793)">
<stop stop-color="#FF834E"/>
<stop offset="0.958333" stop-color="#EF412B"/>
</radialGradient>
<radialGradient id="paint29_radial_39_2763" cx="0" cy="0" r="1" gradientUnits="userSpaceOnUse" gradientTransform="translate(44.4123 17.942) rotate(90) scale(1.47937 1.15752)">
<stop stop-color="#FF834E"/>
<stop offset="0.958333" stop-color="#EF412B"/>
</radialGradient>
<radialGradient id="paint30_radial_39_2763" cx="0" cy="0" r="1" gradientUnits="userSpaceOnUse" gradientTransform="translate(45.13 28.4979) rotate(90) scale(1.53486 1.08183)">
<stop stop-color="#FF834E"/>
<stop offset="0.958333" stop-color="#EF412B"/>
</radialGradient>
<radialGradient id="paint31_radial_39_2763" cx="0" cy="0" r="1" gradientUnits="userSpaceOnUse" gradientTransform="translate(40.428 38.0106) rotate(90) scale(1.39635 1.25681)">
<stop stop-color="#FF834E"/>
<stop offset="0.958333" stop-color="#EF412B"/>
</radialGradient>
<radialGradient id="paint32_radial_39_2763" cx="0" cy="0" r="1" gradientUnits="userSpaceOnUse" gradientTransform="translate(32.0949 44.3112) rotate(90) scale(1.13091 1.50251)">
<stop stop-color="#FF834E"/>
<stop offset="0.958333" stop-color="#EF412B"/>
</radialGradient>
<radialGradient id="paint33_radial_39_2763" cx="0" cy="0" r="1" gradientUnits="userSpaceOnUse" gradientTransform="translate(21.686 45.046) rotate(90) scale(1.1047 1.5219)">
<stop stop-color="#FF834E"/>
<stop offset="0.958333" stop-color="#EF412B"/>
</radialGradient>
<radialGradient id="paint34_radial_39_2763" cx="0" cy="0" r="1" gradientUnits="userSpaceOnUse" gradientTransform="translate(11.9168 40.5013) rotate(90) scale(1.25432 1.39941)">
<stop stop-color="#FF834E"/>
<stop offset="0.958333" stop-color="#EF412B"/>
</radialGradient>
<radialGradient id="paint35_radial_39_2763" cx="0" cy="0" r="1" gradientUnits="userSpaceOnUse" gradientTransform="translate(5.71139 32.1746) rotate(90) scale(1.44603 1.19871)">
<stop stop-color="#FF834E"/>
<stop offset="0.958333" stop-color="#EF412B"/>
</radialGradient>
<radialGradient id="paint36_radial_39_2763" cx="0" cy="0" r="1" gradientUnits="userSpaceOnUse" gradientTransform="translate(4.80453 21.8513) rotate(90) scale(1.53192 1.08544)">
<stop stop-color="#FF834E"/>
<stop offset="0.958333" stop-color="#EF412B"/>
</radialGradient>
<radialGradient id="paint37_radial_39_2763" cx="0" cy="0" r="1" gradientUnits="userSpaceOnUse" gradientTransform="translate(9.32646 12.1077) rotate(90) scale(1.45615 1.1865)">
<stop stop-color="#FF834E"/>
<stop offset="0.958333" stop-color="#EF412B"/>
</radialGradient>
<radialGradient id="paint38_radial_39_2763" cx="0" cy="0" r="1" gradientUnits="userSpaceOnUse" gradientTransform="translate(17.8962 5.74462) rotate(90) scale(1.14458 1.49164)">
<stop stop-color="#FF834E"/>
<stop offset="0.958333" stop-color="#EF412B"/>
</radialGradient>
<radialGradient id="paint39_radial_39_2763" cx="0" cy="0" r="1" gradientUnits="userSpaceOnUse" gradientTransform="translate(28.4026 5.06473) rotate(90) scale(1.07115 1.54532)">
<stop stop-color="#FF834E"/>
<stop offset="0.958333" stop-color="#EF412B"/>
</radialGradient>
<radialGradient id="paint40_radial_39_2763" cx="0" cy="0" r="1" gradientUnits="userSpaceOnUse" gradientTransform="translate(38.1352 9.42208) rotate(90) scale(1.24497 1.40788)">
<stop stop-color="#FF834E"/>
<stop offset="0.958333" stop-color="#EF412B"/>
</radialGradient>
<clipPath id="clip0_39_2763">
<rect width="50" height="50" fill="white"/>
</clipPath>
</defs>
</svg>
